#N canvas 104 22 1238 695 10;
#X obj 99 273 adc~;
#X msg 185 573 disconnect;
#X obj 34 173 tgl 15 0 empty empty empty 17 7 0 10 -262144 -1 -1 0
1;
#X obj 19 290 *~;
#X obj 19 338 dac~;
#X obj 185 500 loadbang;
#X obj 100 46 bng 15 250 50 0 empty empty empty 0 -6 0 10 -262144 -1
-1;
#X msg 100 84 \; pd dsp 1;
#X msg 33 85 \; pd dsp 0;
#X obj 33 48 bng 15 250 50 0 empty empty empty 0 -6 0 10 -262144 -1
-1;
#X text 31 15 Turn On/Off Pd.DSP;
#N canvas 513 157 898 653 karmaFiddle 0;
#X obj -1170 289 nbx 5 14 -1e+37 1e+37 0 0 empty empty empty 0 -8 0
10 -262144 -1 -1 65.0259 256;
#X obj -1115 319 unpack;
#X obj -1115 354 nbx 5 14 -1e+37 1e+37 0 0 empty empty empty 0 -8 0
10 -262144 -1 -1 0 256;
#X obj -1042 336 nbx 5 14 -1e+37 1e+37 0 0 empty empty empty 0 -8 0
10 -262144 -1 -1 0 256;
#X obj -1115 378 route 0;
#X obj -1087 278 nbx 5 14 -1e+37 1e+37 0 0 empty empty empty 0 -8 0
10 -262144 -1 -1 94.1019 256;
#X obj -1042 391 > 50;
#X obj -1042 421 tgl 15 0 empty empty empty 17 7 0 10 -262144 -1 -1
0 1;
#X obj -1042 441 sel 1 0;
#X obj -1042 471 timer;
#X floatatom -1041 502 5 0 0 0 - - -, f 5;
#X obj -1041 554 tgl 15 0 empty empty empty 17 7 0 10 -262144 -1 -1
0 1;
#X text -1185 339 Attack;
#X obj -1114 409 nbx 5 14 -1e+37 1e+37 0 0 empty empty empty 0 -8 0
10 -262144 -1 -1 47.7524 256;
#X text -1173 408 Raw Pitch;
#X text -1043 319 Raw Amplitude;
#X text -1093 107 1024 = FFT window size;
#X msg -1090 129 npoints 1024;
#X msg -1090 155 npoints 2048;
#X obj -1041 524 > 2000;
#X obj -1041 580 s silence;
#X text -1306 34 Uses the fiddle object to extract FFT and some other
information.;
#X obj -897 556 unpack;
#X obj -897 579 nbx 5 14 -1e+37 1e+37 0 0 empty empty empty 0 -8 0
10 -262144 -1 -1 0 256;
#X obj -864 579 nbx 5 14 -1e+37 1e+37 0 0 empty empty empty 0 -8 0
10 -262144 -1 -1 0 256;
#X obj -882 477 unpack;
#X text -899 34 5 EQUALIZER BANDS WITH THEIR PITCH (Hz) AND AMPLITUDE
(rms);
#X obj -882 497 nbx 5 14 -1e+37 1e+37 0 0 empty empty empty 0 -8 0
10 -262144 -1 -1 0 256;
#X obj -849 497 nbx 5 14 -1e+37 1e+37 0 0 empty empty empty 0 -8 0
10 -262144 -1 -1 0 256;
#X obj -866 398 unpack;
#X obj -866 418 nbx 5 14 -1e+37 1e+37 0 0 empty empty empty 0 -8 0
10 -262144 -1 -1 0 256;
#X obj -833 418 nbx 5 14 -1e+37 1e+37 0 0 empty empty empty 0 -8 0
10 -262144 -1 -1 0 256;
#X obj -850 319 unpack;
#X obj -850 339 nbx 5 14 -1e+37 1e+37 0 0 empty empty empty 0 -8 0
10 -262144 -1 -1 0 256;
#X obj -817 339 nbx 5 14 -1e+37 1e+37 0 0 empty empty empty 0 -8 0
10 -262144 -1 -1 0 256;
#X obj -834 241 unpack;
#X obj -834 261 nbx 5 14 -1e+37 1e+37 0 0 empty empty empty 0 -8 0
10 -262144 -1 -1 0 256;
#X obj -801 261 nbx 5 14 -1e+37 1e+37 0 0 empty empty empty 0 -8 0
10 -262144 -1 -1 0 256;
#X obj -1307 214 inlet~ LeftAudio;
#X obj -1300 238 inlet~ RightAudio;
#X text -1250 524 Bang Detects 2 sec non-variation;
#X text -1252 538 (potentially end of track/set);
#X text -996 523 ms;
#X obj -1241 307 s fiddle_pitch;
#X obj -897 616 s fft1p;
#X obj -864 596 s fft1a;
#X obj -849 513 s fft2a;
#X obj -866 454 s fft3p;
#X obj -833 435 s fft3a;
#X obj -850 375 s fft4p;
#X obj -817 356 s fft4a;
#X obj -834 297 s fft5p;
#X obj -801 278 s fft5a;
#X text -1247 288 Cooked Pitch;
#X text -1030 278 Amplitude (db);
#X obj -818 162 unpack;
#X obj -818 182 nbx 5 14 -1e+37 1e+37 0 0 empty empty empty 0 -8 0
10 -262144 -1 -1 0 256;
#X obj -785 182 nbx 5 14 -1e+37 1e+37 0 0 empty empty empty 0 -8 0
10 -262144 -1 -1 0 256;
#X obj -785 199 s fft6a;
#X obj -818 218 s fft6p;
#X obj -802 84 unpack;
#X obj -802 104 nbx 5 14 -1e+37 1e+37 0 0 empty empty empty 0 -8 0
10 -262144 -1 -1 0 256;
#X obj -769 104 nbx 5 14 -1e+37 1e+37 0 0 empty empty empty 0 -8 0
10 -262144 -1 -1 0 256;
#X obj -897 60 route 1 2 3 4 5 6 7;
#X obj -1170 255 fiddle~ 1024 1 50 7;
#X obj -802 140 s fft7p;
#X obj -769 121 s fft7a;
#X obj -882 532 s fft2p;
#X obj -1031 358 s fiddle_raw_amp;
#X obj -1087 296 s fiddle_amp;
#X obj -1282 109 inlet on_off_switch;
#X obj -1303 114 tgl 15 0 empty empty empty 17 7 0 10 -262144 -1 -1
1 1;
#X obj -1171 430 s fiddle_raw_pitch;
#X obj -1222 361 s fiddle_attack;
#X obj -1143 339 bng 15 250 50 0 empty empty empty 17 7 0 10 -262144
-1 -1;
#X obj -1257 165 bng 15 250 50 0 empty empty empty 17 7 0 10 -262144
-1 -1;
#X obj -1257 129 route 0 1;
#X obj -1232 166 i 1;
#X obj -646 479 r karma-fiddle-off;
#X obj -1365 188 s karma-fiddle-off;
#X obj -646 545 i 0;
#X text -646 462 Reset all values;
#X obj -639 502 bng 15 250 50 0 empty empty empty 17 7 0 10 -262144
-1 -1;
#X obj -1188 166 i 0;
#X obj -646 570 s fiddler_reset;
#X obj -710 87 r fiddler_reset;
#X obj -725 165 r fiddler_reset;
#X obj -738 244 r fiddler_reset;
#X obj -753 322 r fiddler_reset;
#X obj -771 401 r fiddler_reset;
#X obj -786 480 r fiddler_reset;
#X obj -795 562 r fiddler_reset;
#X obj -1029 261 r fiddler_reset;
#X obj -1283 393 r fiddler_reset;
#X msg -1188 191 auto \$1;
#X obj -639 522 delay 50;
#X floatatom -581 62 5 0 0 0 Sending_Freq_(ms) - -, f 5;
#X obj -558 111 loadbang;
#X obj -558 131 i 1;
#X obj -605 200 i;
#X obj -567 201 + 1;
#X floatatom -605 223 5 0 0 0 - - -, f 5;
#X obj -604 152 OSCCleanFloat 100;
#X obj -590 177 bng 15 250 50 0 empty empty empty 17 7 0 10 -262144
-1 -1;
#X obj -1166 221 *~;
#X obj -1300 266 *~;
#X connect 0 0 43 0;
#X connect 1 0 2 0;
#X connect 1 1 3 0;
#X connect 2 0 4 0;
#X connect 3 0 6 0;
#X connect 3 0 68 0;
#X connect 4 1 13 0;
#X connect 5 0 69 0;
#X connect 6 0 7 0;
#X connect 7 0 8 0;
#X connect 8 0 9 0;
#X connect 8 1 9 1;
#X connect 9 0 10 0;
#X connect 10 0 19 0;
#X connect 11 0 20 0;
#X connect 13 0 72 0;
#X connect 17 0 64 0;
#X connect 18 0 64 0;
#X connect 19 0 11 0;
#X connect 22 0 23 0;
#X connect 22 1 24 0;
#X connect 23 0 44 0;
#X connect 24 0 45 0;
#X connect 25 0 27 0;
#X connect 25 1 28 0;
#X connect 27 0 67 0;
#X connect 28 0 46 0;
#X connect 29 0 30 0;
#X connect 29 1 31 0;
#X connect 30 0 47 0;
#X connect 31 0 48 0;
#X connect 32 0 33 0;
#X connect 32 1 34 0;
#X connect 33 0 49 0;
#X connect 34 0 50 0;
#X connect 35 0 36 0;
#X connect 35 1 37 0;
#X connect 36 0 51 0;
#X connect 37 0 52 0;
#X connect 38 0 104 0;
#X connect 39 0 105 0;
#X connect 55 0 56 0;
#X connect 55 1 57 0;
#X connect 56 0 59 0;
#X connect 57 0 58 0;
#X connect 60 0 61 0;
#X connect 60 1 62 0;
#X connect 61 0 65 0;
#X connect 61 0 102 0;
#X connect 62 0 66 0;
#X connect 63 0 22 0;
#X connect 63 1 25 0;
#X connect 63 2 29 0;
#X connect 63 3 32 0;
#X connect 63 4 35 0;
#X connect 63 5 55 0;
#X connect 63 6 60 0;
#X connect 64 0 0 0;
#X connect 64 1 73 0;
#X connect 64 1 74 0;
#X connect 64 2 1 0;
#X connect 64 3 5 0;
#X connect 64 4 63 0;
#X connect 70 0 71 0;
#X connect 71 0 76 0;
#X connect 75 0 79 0;
#X connect 76 0 75 0;
#X connect 76 0 83 0;
#X connect 76 1 77 0;
#X connect 77 0 94 0;
#X connect 77 0 104 1;
#X connect 77 0 105 1;
#X connect 78 0 80 0;
#X connect 78 0 82 0;
#X connect 80 0 84 0;
#X connect 82 0 95 0;
#X connect 83 0 94 0;
#X connect 83 0 104 1;
#X connect 83 0 105 1;
#X connect 85 0 62 0;
#X connect 85 0 61 0;
#X connect 86 0 57 0;
#X connect 86 0 56 0;
#X connect 87 0 37 0;
#X connect 87 0 36 0;
#X connect 88 0 34 0;
#X connect 88 0 33 0;
#X connect 89 0 31 0;
#X connect 89 0 30 0;
#X connect 90 0 28 0;
#X connect 90 0 27 0;
#X connect 91 0 24 0;
#X connect 91 0 23 0;
#X connect 92 0 5 0;
#X connect 92 0 3 0;
#X connect 93 0 13 0;
#X connect 93 0 0 0;
#X connect 94 0 64 0;
#X connect 95 0 80 0;
#X connect 97 0 98 0;
#X connect 98 0 102 1;
#X connect 99 0 101 0;
#X connect 99 0 100 0;
#X connect 100 0 99 1;
#X connect 102 0 103 0;
#X connect 103 0 99 0;
#X connect 104 0 64 0;
#X connect 105 0 64 0;
#X restore 239 290 pd karmaFiddle;
#X text 176 474 OSC SERVER CONFIGURATION;
#X text 20 474 OSC ROUTING;
#X floatatom 825 137 5 0 0 0 - - -, f 5;
#X floatatom 824 158 5 0 0 0 - - -, f 5;
#X floatatom 824 181 5 0 0 0 - - -, f 5;
#X floatatom 824 202 5 0 0 0 - - -, f 5;
#X floatatom 823 226 5 0 0 0 - - -, f 5;
#X floatatom 823 247 5 0 0 0 - - -, f 5;
#X floatatom 823 271 5 0 0 0 - - -, f 5;
#X floatatom 823 292 5 0 0 0 - - -, f 5;
#X floatatom 824 316 5 0 0 0 - - -, f 5;
#X floatatom 825 337 5 0 0 0 - - -, f 5;
#X obj 37 212 hsl 100 15 0 1 0 0 0 ¸áÿ¿» 0 0 0 0 4 -262144 -1
-1 0 0;
#X obj 771 428 r silence;
#X obj 771 320 r fft5p;
#X obj 771 299 r fft5a;
#X obj 771 275 r fft4p;
#X obj 771 254 r fft4a;
#X obj 771 230 r fft3p;
#X obj 771 209 r fft3a;
#X obj 771 185 r fft2p;
#X obj 771 164 r fft2a;
#X obj 772 141 r fft1p;
#X obj 772 120 r fft1a;
#X text 378 23 ROUTING;
#X text 379 38 - - - - - - - - - - - - - - - - - - - - - - - - - -
- - - -;
#X text 19 483 - - - - - - - - - - - - - - - - - - - - - - - - - -
;
#X text 739 38 - - - - - - - - - - - - - - - - - - - - - - - - - -
- - - -;
#X obj 771 449 r fiddle_pitch;
#X obj 771 471 r fiddle_attack;
#X obj 771 492 r fiddle_amp;
#X obj 320 252 tgl 15 0 empty empty empty 17 7 0 10 -262144 -1 -1 1
1;
#X text 265 250 (on/off);
#X obj 909 445 tgl 15 0 empty empty empty 17 7 0 10 -262144 -1 -1 0
1;
#X floatatom 893 466 5 0 0 0 - - -, f 5;
#X obj 771 537 r fiddle_raw_pitch;
#X floatatom 893 554 5 0 0 0 - - -, f 5;
#X floatatom 891 509 5 0 0 0 - - -, f 5;
#X floatatom 892 531 5 0 0 0 - - -, f 5;
#X obj 908 488 bng 15 250 50 0 empty empty empty 17 7 0 10 -262144
-1 -1;
#X obj 1173 488 + 1;
#X floatatom 1142 513 5 0 0 0 - - -, f 5;
#X obj 380 130 r aubio_pitch;
#X obj 380 153 r aubio_quiet;
#X obj 771 514 r fiddle_raw_amp;
#X obj 143 319 tgl 15 0 empty empty empty 17 7 0 10 -262144 -1 -1 1
1;
#X text 162 318 (on/off);
#X obj 496 170 tgl 15 0 empty empty empty 17 7 0 10 -262144 -1 -1 0
1;
#X obj 380 200 r aubio_tempo_bis;
#X obj 498 217 bng 15 250 50 0 empty empty empty 17 7 0 10 -262144
-1 -1;
#X obj 380 246 r aubio_bpm;
#X floatatom 481 263 5 0 0 0 - - -, f 5;
#X obj 380 223 r aubio_tempo;
#X obj 498 240 bng 15 250 50 0 empty empty empty 17 7 0 10 -262144
-1 -1;
#X obj 380 269 r aubio_onset;
#X obj 498 286 bng 15 250 50 0 empty empty empty 17 7 0 10 -262144
-1 -1;
#X floatatom 44 234 5 0 0 0 - - -, f 5;
#X floatatom 480 308 5 0 0 0 - - -, f 5;
#X obj 379 291 r aubio_zcr;
#X text 378 49 All analysed data is routed to OSC messages in this
section;
#X text 770 98 FIDDLE FFT ROUTING;
#X text 770 406 FIDDLE :: [pitch \, attack \, silence \, amplitude]
ROUTING;
#X text 378 102 :: LIB AUBIO ROUTING ::;
#X text 31 153 SOUND OUTPUT;
#X text 56 193 Volume;
#X text 56 172 On/Off;
#X text 99 252 AUDIO SOURCE;
#X obj 258 235 loadbang;
#X msg 185 530 connect localhost 12000;
#X obj 21 613 tgl 15 0 empty empty empty 17 7 0 10 -262144 -1 -1 0
1;
#X obj 21 528 spigot;
#X text 42 612 UDP State;
#X text 198 270 FFT & MORE ANALYSIS;
#X obj 143 296 loadbang;
#N canvas 314 23 997 667 aubio 0;
#X obj 41 196 bng 15 250 50 0 empty empty empty 17 7 0 10 -262144 -1
-1;
#X obj 462 164 aubiopitch~;
#X obj 462 211 nbx 5 14 -1e+37 1e+37 0 0 empty empty empty 0 -8 0 10
-262144 -1 -1 61.0832 256;
#X obj 130 197 bng 15 50 10 0 empty empty empty 17 7 0 10 -262144 -1
-1;
#X obj 217 198 bng 15 250 50 0 empty empty empty 17 7 0 10 -262144
-1 -1;
#X obj 130 163 aubiotempo~ 0.5;
#X obj 322 348 i;
#X obj 360 349 + 1;
#X floatatom 322 378 5 0 0 0 - - -, f 5;
#X obj 158 369 timer;
#X floatatom 158 395 5 0 0 0 - - -, f 5;
#X floatatom 158 520 5 0 0 0 - - -, f 5;
#X obj 158 422 expr ($i1 / 6) * 2;
#X floatatom 245 451 5 0 0 0 - - -, f 5;
#X floatatom 158 451 5 0 0 0 - - -, f 5;
#X floatatom 322 453 5 0 0 0 - - -, f 5;
#X floatatom 345 474 5 0 0 0 - - -, f 5;
#X floatatom 368 454 5 0 0 0 - - -, f 5;
#N canvas 281 187 746 413 timer_utility 0;
#X obj 101 28 inlet;
#X obj 101 377 outlet;
#X obj 160 28 inlet;
#X obj 394 185 sel 0;
#X obj 393 215 0;
#X obj 356 239 metro 1000;
#X obj 101 181 bng 15 250 50 0 empty empty empty 17 7 0 10 -262144
-1 -1;
#X obj 101 206 i;
#X obj 143 207 + 1;
#X obj 101 242 nbx 5 14 -1e+37 1e+37 0 0 empty empty empty 0 -8 0 10
-262144 -1 -1 426 256;
#X obj 101 322 div 4;
#X obj 101 348 + 1;
#X obj 199 350 + 1;
#X obj 191 376 outlet;
#X obj 215 101 expr ($i1 * 60) / 1000;
#X obj 215 29 inlet;
#X obj 215 132 outlet;
#X obj 237 233 inlet;
#X obj 192 322 mod 4;
#X obj 275 378 outlet;
#X obj 349 380 outlet;
#X obj 276 324 div 60;
#X obj 350 326 mod 60;
#X obj 355 124 bng 15 250 50 0 empty empty empty 17 7 0 10 -262144
-1 -1;
#X obj 356 155 t b f;
#X obj 237 264 t f f;
#X connect 0 0 6 0;
#X connect 3 0 4 0;
#X connect 5 0 21 0;
#X connect 5 0 22 0;
#X connect 6 0 7 0;
#X connect 7 0 8 0;
#X connect 7 0 9 0;
#X connect 8 0 7 1;
#X connect 9 0 10 0;
#X connect 9 0 18 0;
#X connect 10 0 11 0;
#X connect 11 0 1 0;
#X connect 14 0 16 0;
#X connect 15 0 14 0;
#X connect 17 0 25 0;
#X connect 18 0 13 0;
#X connect 21 0 19 0;
#X connect 22 0 20 0;
#X connect 23 0 24 0;
#X connect 24 0 5 0;
#X connect 24 1 3 0;
#X connect 25 0 18 1;
#X connect 25 1 10 1;
#X restore 322 409 pd timer_utility;
#X text 16 13 Uses lib Aubio to get several MIR information;
#X obj 237 54 inlet~ LeftAudio;
#X obj 351 56 inlet~ RightAudio;
#X obj 281 164 aubioquiet~;
#X obj 515 61 inlet on_off_switch;
#X obj 345 496 hradio 15 1 0 4 empty empty empty 0 -8 0 10 -262144
-1 -1 2;
#X text 325 321 METRONOM;
#X text 173 318 TEMPO // BPM;
#X obj 365 78 tgl 15 0 empty empty empty 17 7 0 10 -262144 -1 -1 1
1;
#X obj 41 267 s aubio_onset;
#X obj 130 267 s aubio_tempo;
#X obj 217 267 s aubio_tempo_bis;
#X obj 361 252 s aubio_quiet;
#X obj 462 256 s aubio_pitch;
#X obj 310 503 == 0;
#X obj 345 520 tgl 60 0 empty empty empty 17 7 0 10 -262144 -1 -1 0
1;
#X obj 158 544 s aubio_bpm;
#X obj 716 164 aubiotss~;
#X obj 716 249 vsl 15 100 0 1 0 0 empty empty empty 0 -9 0 10 -262144
-1 -1 6649 1;
#X obj 716 188 env~;
#X obj 767 249 vsl 15 100 0 1 0 0 empty empty empty 0 -9 0 10 -262144
-1 -1 7596 1;
#X obj 767 189 env~;
#X obj 716 141 hsl 100 15 0 1 0 0 empty empty empty -2 -8 0 10 -262144
-1 -1 0 0;
#X floatatom 778 164 5 0 0 0 - - -, f 5;
#X text 713 123 Variation Threshold;
#X obj 577 166 aubiozcr~;
#X floatatom 577 228 5 0 0 0 - - -, f 5;
#X obj 577 356 s aubio_zcr;
#X obj 19 526 i 0;
#X text 19 443 Reset all values;
#X obj 26 483 bng 15 250 50 0 empty empty empty 17 7 0 10 -262144 -1
-1;
#X obj 26 503 delay 1000;
#X obj 517 93 s aubio-off;
#X obj 19 460 r aubio-off;
#X obj 19 558 s aubio_reset;
#X obj 804 230 r aubio_reset;
#X obj 471 187 r aubio_reset;
#X obj 196 503 r aubio_reset;
#X obj 376 431 r aubio_reset;
#N canvas 775 308 450 300 clean_signal 0;
#X obj 51 133 ==;
#X obj 93 116 f;
#X floatatom 102 139 5 0 0 0 - - -, f 5;
#X text 24 10 SIGNAL CLEANER;
#X obj 51 68 inlet float;
#X obj 51 156 sel 0;
#X obj 93 163 outlet float;
#X text 25 24 Prevents resending bangs when the float value has not
changed. (Sort of flood filter);
#X connect 0 0 5 0;
#X connect 1 0 0 1;
#X connect 1 0 2 0;
#X connect 1 0 6 0;
#X connect 4 0 1 1;
#X connect 4 0 0 0;
#X connect 5 0 1 0;
#X restore 462 233 pd clean_signal;
#X floatatom 577 289 5 0 0 0 - - -, f 5;
#X obj 543 305 -;
#X obj 543 327 abs;
#X obj 522 411 sqrt;
#X text 13 65 Treshold Tempo;
#X text 14 88 Treshold OnSet;
#X obj 591 268 r aubio_reset;
#X floatatom 634 227 5 0 20 2 - - -, f 5;
#X text 584 211 Zcr;
#X text 613 290 Smoothed;
#N canvas 960 356 450 300 clean_signal 0;
#X obj 51 133 ==;
#X obj 93 116 f;
#X floatatom 102 139 5 0 0 0 - - -, f 5;
#X text 24 10 SIGNAL CLEANER;
#X obj 51 68 inlet float;
#X obj 51 156 sel 0;
#X obj 93 163 outlet float;
#X text 25 24 Prevents resending bangs when the float value has not
changed. (Sort of flood filter);
#X connect 0 0 5 0;
#X connect 1 0 0 1;
#X connect 1 0 2 0;
#X connect 1 0 6 0;
#X connect 4 0 1 1;
#X connect 4 0 0 0;
#X connect 5 0 1 0;
#X restore 577 332 pd clean_signal;
#X obj 560 378 r aubio_reset;
#X obj 580 410 hsl 100 15 0 1 0 0 empty empty empty -2 -8 0 10 -262144
-1 -1 1247 1;
#X obj 580 428 hsl 100 15 0 1 0 0 empty empty empty -2 -8 0 10 -262144
-1 -1 2098 1;
#X obj 496 305 hsl 40 15 -0.1 0.1 0 0 empty empty empty -2 -8 0 10
-262144 -1 -1 0 1;
#X floatatom 154 68 5 0 0 0 - - -, f 5;
#X text 629 198 Smoothing;
#X text 630 209 Treshold;
#X obj 107 68 hsl 40 15 0 10 0 0 empty empty empty -2 -8 0 10 -262144
-1 -1 0 1;
#X floatatom 154 88 5 0 0 0 - - -, f 5;
#X obj 107 89 hsl 40 15 0 15 0 0 empty empty empty -2 -8 0 10 -262144
-1 -1 0 1;
#X floatatom 506 324 5 0 0 0 - - -, f 5;
#X text 102 46 PARAMETERS;
#X text 491 288 Treshold;
#X obj 716 440 <;
#X obj 722 414 f 0.005;
#X obj 767 210 / 127;
#X obj 716 210 / 127;
#X obj 722 393 loadbang;
#X obj 787 251 vsl 15 100 0 1 0 0 empty empty empty 0 -9 0 10 -262144
-1 -1 5039 1;
#X obj 846 307 -, f 2;
#X obj 577 310 * 5;
#X obj 478 344 -;
#X text 575 443 ZeroCross Variation;
#X obj 522 388 * 2;
#X obj 767 440 <;
#X obj 722 376 bng 15 250 50 0 empty empty empty 17 7 0 10 -262144
-1 -1;
#X obj 752 466 == 0;
#X obj 716 491 &;
#N canvas 775 308 450 300 clean_signal 0;
#X obj 51 133 ==;
#X obj 93 116 f;
#X floatatom 102 139 5 0 0 0 - - -, f 5;
#X text 24 10 SIGNAL CLEANER;
#X obj 51 68 inlet float;
#X obj 51 156 sel 0;
#X obj 93 163 outlet float;
#X text 25 24 Prevents resending bangs when the float value has not
changed. (Sort of flood filter);
#X connect 0 0 5 0;
#X connect 1 0 0 1;
#X connect 1 0 2 0;
#X connect 1 0 6 0;
#X connect 4 0 1 1;
#X connect 4 0 0 0;
#X connect 5 0 1 0;
#X restore 716 512 pd clean_signal;
#X obj 306 214 tgl 15 0 empty empty empty 17 7 0 10 -262144 -1 -1 0
1;
#X obj 716 535 tgl 15 0 empty empty empty 17 7 0 10 -262144 -1 -1 1
1;
#X obj 716 467 == 0;
#X text 737 533 isPlaying;
#X obj 716 556 s aubio_is_playing;
#X obj 334 184 r aubio_is_playing;
#X obj 334 205 sel 1;
#X obj 306 189 i 0;
#X obj 846 369 sqrt;
#X text 810 277 (~Sound similarity indicator);
#X text 575 457 (~cymbal detection);
#X floatatom 623 312 5 0 0 0 - - -, f 5;
#X obj 435 13 aubio;
#X obj 41 161 aubioonset~;
#X obj 158 339 km_alternate;
#X obj 238 103 *~;
#X obj 350 100 *~;
#X text 474 18 Loads Aubio lib on misconfigured Pd installations;
#X obj 846 398 sqrt;
#X obj 577 248 km_average 10;
#X obj 478 366 km_average 3;
#X obj 846 338 km_average 30;
#X msg 41 224 bang;
#X msg 217 226 bang;
#X msg 130 227 bang;
#X obj 158 479 km_average 30;
#X obj 281 235 sel 1;
#X obj 281 189 i 1;
#X msg 321 235 bang;
#X connect 0 0 121 0;
#X connect 1 0 2 0;
#X connect 2 0 58 0;
#X connect 3 0 6 0;
#X connect 3 0 113 0;
#X connect 3 0 123 0;
#X connect 4 0 122 0;
#X connect 5 0 3 0;
#X connect 5 1 4 0;
#X connect 6 0 8 0;
#X connect 6 0 7 0;
#X connect 7 0 6 1;
#X connect 8 0 18 0;
#X connect 9 0 10 0;
#X connect 10 0 12 0;
#X connect 11 0 35 0;
#X connect 12 0 14 0;
#X connect 14 0 124 0;
#X connect 16 0 24 0;
#X connect 16 0 33 0;
#X connect 18 0 15 0;
#X connect 18 1 16 0;
#X connect 18 2 17 0;
#X connect 20 0 114 0;
#X connect 21 0 115 0;
#X connect 22 0 126 0;
#X connect 23 0 27 0;
#X connect 27 0 51 0;
#X connect 27 0 114 1;
#X connect 27 0 115 1;
#X connect 33 0 34 0;
#X connect 36 0 38 0;
#X connect 36 1 40 0;
#X connect 37 0 83 0;
#X connect 37 0 89 0;
#X connect 38 0 86 0;
#X connect 39 0 89 1;
#X connect 39 0 94 0;
#X connect 40 0 85 0;
#X connect 41 0 36 1;
#X connect 41 0 42 0;
#X connect 44 0 45 0;
#X connect 45 0 60 1;
#X connect 45 0 118 0;
#X connect 47 0 53 0;
#X connect 49 0 50 0;
#X connect 50 0 47 0;
#X connect 52 0 47 0;
#X connect 52 0 49 0;
#X connect 54 0 37 0;
#X connect 54 0 39 0;
#X connect 55 0 2 0;
#X connect 56 0 11 0;
#X connect 57 0 15 0;
#X connect 57 0 16 0;
#X connect 58 0 32 0;
#X connect 59 0 60 0;
#X connect 59 0 90 0;
#X connect 60 0 61 0;
#X connect 61 0 91 0;
#X connect 62 0 72 0;
#X connect 65 0 59 0;
#X connect 69 0 46 0;
#X connect 69 0 110 0;
#X connect 70 0 72 0;
#X connect 70 0 90 0;
#X connect 73 0 80 0;
#X connect 73 0 91 1;
#X connect 77 0 74 0;
#X connect 77 0 5 1;
#X connect 79 0 78 0;
#X connect 79 0 112 1;
#X connect 83 0 96 0;
#X connect 83 0 101 0;
#X connect 84 0 83 1;
#X connect 84 0 94 1;
#X connect 85 0 39 0;
#X connect 86 0 37 0;
#X connect 87 0 84 0;
#X connect 89 0 120 0;
#X connect 90 0 71 0;
#X connect 90 0 69 0;
#X connect 91 0 119 0;
#X connect 93 0 62 0;
#X connect 94 0 96 0;
#X connect 96 0 97 1;
#X connect 97 0 98 0;
#X connect 98 0 100 0;
#X connect 100 0 103 0;
#X connect 101 0 97 0;
#X connect 104 0 105 0;
#X connect 105 0 106 0;
#X connect 106 0 99 0;
#X connect 107 0 117 0;
#X connect 112 0 0 0;
#X connect 113 0 9 0;
#X connect 113 1 9 1;
#X connect 114 0 112 0;
#X connect 114 0 5 0;
#X connect 114 0 22 0;
#X connect 114 0 1 0;
#X connect 114 0 44 0;
#X connect 114 0 36 0;
#X connect 115 0 112 0;
#X connect 115 0 5 0;
#X connect 115 0 22 0;
#X connect 115 0 1 0;
#X connect 115 0 44 0;
#X connect 115 0 36 0;
#X connect 117 0 88 0;
#X connect 118 0 59 0;
#X connect 119 0 93 0;
#X connect 120 0 107 0;
#X connect 121 0 28 0;
#X connect 122 0 30 0;
#X connect 123 0 29 0;
#X connect 124 0 11 0;
#X connect 125 0 127 0;
#X connect 126 0 99 0;
#X connect 126 0 125 0;
#X connect 127 0 31 0;
#X restore 98 338 pd aubio;
#X obj 76 526 spigot;
#X obj 109 459 tgl 15 0 empty empty empty 17 7 0 10 -262144 -1 -1 0
1;
#X obj 76 549 print;
#X floatatom 480 147 5 0 0 0 - - -, f 5;
#X text 127 458 Print Output to Console;
#X text 740 28 Todo: - http://forumnet.ircam.fr/product/antescofo/?lang=en
;
#X obj 380 177 r aubio_is_playing;
#X obj 497 194 tgl 15 0 empty empty empty 17 7 0 10 -262144 -1 -1 1
1;
#X obj 175 370 vsl 15 60 -1 1 0 0 empty empty empty 0 -9 0 10 -262144
-1 -1 3072 1;
#X text 125 372 Balance;
#N canvas 775 308 450 300 clean_signal 0;
#X obj 51 133 ==;
#X obj 93 116 f;
#X floatatom 102 139 5 0 0 0 - - -, f 5;
#X text 24 10 SIGNAL CLEANER;
#X obj 51 68 inlet float;
#X obj 51 156 sel 0;
#X obj 93 163 outlet float;
#X text 25 24 Prevents resending bangs when the float value has not
changed. (Sort of flood filter);
#X connect 0 0 5 0;
#X connect 1 0 0 1;
#X connect 1 0 2 0;
#X connect 1 0 6 0;
#X connect 4 0 1 1;
#X connect 4 0 0 0;
#X connect 5 0 1 0;
#X restore 195 376 pd clean_signal;
#X text 357 404 Many OSC optimisation todo here \, frequency and packing
stuff. See resample.pd and sendmany-osc.pd;
#X text 184 42 Make sure to run this with;
#X obj 21 591 netsend -u -b;
#X text 185 60 Pd-Vanilla 0.46-7;
#X text 188 118 Make sure to use 64bit;
#X text 188 99 Needs pd-Aubio and;
#X obj 57 368 env~;
#X obj 57 391 / 127;
#X obj 95 367 env~;
#X obj 95 391 / 127;
#X obj 80 415 -;
#X text 153 338 LIB AUBIO ANALYSIS SECTION;
#X obj 118 415 * 3;
#X obj 21 633 s osc_status;
#X obj 21 500 r osc_out_raw;
#X obj 1142 488 i 0;
#X obj 1049 113 tgl 15 0 empty empty empty 17 7 0 10 -262144 -1 -1
0 1;
#X text 997 111 Enabled;
#X obj 672 111 tgl 15 0 empty empty empty 17 7 0 10 -262144 -1 -1 0
1;
#X obj 1116 417 tgl 15 0 empty empty empty 17 7 0 10 -262144 -1 -1
0 1;
#X msg 185 550 connect 192.168.0.11 12000;
#X obj 525 217 km_osc_format aubioTempoBis;
#X obj 525 147 km_osc_format aubioPitch;
#X obj 878 137 km_osc_format /fiddle_fft/1/a;
#X obj 525 308 km_osc_format aubioZcr;
#X obj 525 170 km_osc_format aubioQuiet;
#X obj 526 194 km_osc_format aubioIsPlaying;
#X obj 525 240 km_osc_format aubioTempo;
#X obj 525 263 km_osc_format aubioBpm;
#X obj 525 286 km_osc_format aubioOnSet;
#X obj 930 445 km_osc_format /fiddle/silence;
#X obj 933 554 km_osc_format /fiddle/rawPitch;
#X obj 930 488 km_osc_format /fiddle/attack;
#X obj 930 509 km_osc_format /fiddle/amp;
#X obj 931 466 km_osc_format /fiddle/pitch;
#X obj 931 531 km_osc_format /fiddle/rawAmp;
#X obj 877 158 km_osc_format /fiddle_fft/1/p;
#X obj 877 181 km_osc_format /fiddle_fft/2/a;
#X obj 876 202 km_osc_format /fiddle_fft/2/p;
#X obj 876 226 km_osc_format /fiddle_fft/3/a;
#X obj 875 247 km_osc_format /fiddle_fft/3/p;
#X obj 875 271 km_osc_format /fiddle_fft/4/a;
#X obj 874 292 km_osc_format /fiddle_fft/4/p;
#X obj 874 316 km_osc_format /fiddle_fft/5/a;
#X obj 873 337 km_osc_format /fiddle_fft/5/p;
#X obj 195 398 km_osc_format /balance;
#X connect 0 0 3 0;
#X connect 0 0 11 0;
#X connect 0 0 86 0;
#X connect 0 0 104 0;
#X connect 0 1 3 0;
#X connect 0 1 11 1;
#X connect 0 1 86 1;
#X connect 0 1 106 0;
#X connect 1 0 100 0;
#X connect 2 0 24 0;
#X connect 3 0 4 0;
#X connect 3 0 4 1;
#X connect 5 0 80 0;
#X connect 6 0 7 0;
#X connect 9 0 8 0;
#X connect 24 0 3 1;
#X connect 24 0 68 0;
#X connect 25 0 45 0;
#X connect 25 0 128 0;
#X connect 26 0 23 0;
#X connect 26 0 142 0;
#X connect 27 0 22 0;
#X connect 27 0 141 0;
#X connect 28 0 21 0;
#X connect 28 0 140 0;
#X connect 29 0 20 0;
#X connect 29 0 139 0;
#X connect 30 0 19 0;
#X connect 30 0 138 0;
#X connect 31 0 18 0;
#X connect 31 0 137 0;
#X connect 32 0 17 0;
#X connect 32 0 136 0;
#X connect 33 0 16 0;
#X connect 33 0 135 0;
#X connect 34 0 15 0;
#X connect 34 0 134 0;
#X connect 35 0 14 0;
#X connect 40 0 46 0;
#X connect 40 0 132 0;
#X connect 41 0 51 0;
#X connect 41 0 113 0;
#X connect 41 0 130 0;
#X connect 42 0 49 0;
#X connect 42 0 131 0;
#X connect 43 0 11 2;
#X connect 47 0 48 0;
#X connect 47 0 129 0;
#X connect 52 0 113 1;
#X connect 54 0 90 0;
#X connect 54 0 120 0;
#X connect 55 0 59 0;
#X connect 55 0 123 0;
#X connect 56 0 50 0;
#X connect 56 0 133 0;
#X connect 57 0 86 2;
#X connect 60 0 61 0;
#X connect 60 0 119 0;
#X connect 62 0 63 0;
#X connect 62 0 126 0;
#X connect 64 0 65 0;
#X connect 64 0 125 0;
#X connect 66 0 67 0;
#X connect 66 0 127 0;
#X connect 70 0 69 0;
#X connect 70 0 122 0;
#X connect 79 0 43 0;
#X connect 80 0 100 0;
#X connect 81 0 82 1;
#X connect 81 0 111 0;
#X connect 82 0 100 0;
#X connect 85 0 57 0;
#X connect 87 0 89 0;
#X connect 88 0 87 1;
#X connect 93 0 94 0;
#X connect 93 0 124 0;
#X connect 95 0 97 0;
#X connect 97 0 143 0;
#X connect 100 0 81 0;
#X connect 104 0 105 0;
#X connect 105 0 108 0;
#X connect 106 0 107 0;
#X connect 107 0 108 1;
#X connect 108 0 110 0;
#X connect 110 0 95 0;
#X connect 112 0 87 0;
#X connect 112 0 82 0;
#X connect 113 0 52 0;
#X connect 113 0 53 0;
#X connect 114 0 121 1;
#X connect 114 0 134 1;
#X connect 114 0 135 1;
#X connect 114 0 136 1;
#X connect 114 0 137 1;
#X connect 114 0 138 1;
#X connect 114 0 139 1;
#X connect 114 0 140 1;
#X connect 114 0 141 1;
#X connect 114 0 142 1;
#X connect 116 0 119 1;
#X connect 116 0 120 1;
#X connect 116 0 122 1;
#X connect 116 0 123 1;
#X connect 116 0 124 1;
#X connect 116 0 125 1;
#X connect 116 0 126 1;
#X connect 116 0 127 1;
#X connect 117 0 128 1;
#X connect 117 0 129 1;
#X connect 117 0 130 1;
#X connect 117 0 131 1;
#X connect 117 0 132 1;
#X connect 117 0 133 1;
#X connect 118 0 100 0;
