#N canvas 22 23 1294 672 10;
#X obj 17 272 adc~;
#X obj -67 533 sendOSC;
#X floatatom -67 576 5 0 0 0 - - -;
#X floatatom -28 576 5 0 0 0 - - -;
#X msg 88 490 connect localhost 9999;
#X msg 159 516 disconnect;
#X msg 159 439 typetags 1;
#X msg 159 463 typetags 0;
#X obj -48 152 tgl 15 0 empty empty empty 17 7 0 10 -262144 -1 -1 0
1;
#X obj -63 289 *~;
#X obj -63 327 dac~;
#X obj 88 434 loadbang;
#X obj 18 25 bng 15 250 50 0 empty empty empty 0 -6 0 10 -262144 -1
-1;
#X msg 18 63 \; pd dsp 1;
#X msg -49 64 \; pd dsp 0;
#X obj -49 27 bng 15 250 50 0 empty empty empty 0 -6 0 10 -262144 -1
-1;
#N canvas 377 60 837 622 aubio 0;
#X obj 106 161 aubioonset~;
#X obj 106 196 bng 15 250 50 0 empty empty empty 17 7 0 10 -262144
-1 -1;
#X obj 422 164 aubiopitch~;
#X obj 422 211 nbx 5 14 -1e+37 1e+37 0 0 empty empty empty 0 -8 0 10
-262144 -1 -1 0 256;
#X obj 193 197 bng 15 50 10 0 empty empty empty 17 7 0 10 -262144 -1
-1;
#X obj 280 198 bng 15 250 50 0 empty empty empty 17 7 0 10 -262144
-1 -1;
#X obj 193 163 aubiotempo~ 0.5;
#X obj 104 90 nbx 5 14 -1e+37 1e+37 0 0 empty empty empty 0 -8 0 10
-262144 -1 -1 0 256;
#X obj 322 348 i;
#X obj 360 349 + 1;
#X floatatom 322 378 5 0 0 0 - - -;
#X obj 158 339 alternate;
#X obj 158 369 timer;
#X floatatom 158 395 5 0 0 0 - - -;
#X floatatom 158 520 5 0 0 0 - - -;
#X obj 158 422 expr ($i1 / 6) * 2;
#X obj 158 479 hid/hid_average;
#X floatatom 245 451 5 0 0 0 - - -;
#X floatatom 158 451 5 0 0 0 - - -;
#X floatatom 322 453 5 0 0 0 - - -;
#X floatatom 345 474 5 0 0 0 - - -;
#X floatatom 368 454 5 0 0 0 - - -;
#X text 13 88 Treshold Param;
#N canvas 837 96 511 413 timer_utility 0;
#X obj 101 28 inlet;
#X obj 101 377 outlet;
#X obj 160 28 inlet;
#X obj 394 185 sel 0;
#X obj 393 215 0;
#X obj 356 239 metro 1000;
#X obj 101 181 bng 15 250 50 0 empty empty empty 17 7 0 10 -262144
-1 -1;
#X obj 101 206 i;
#X obj 143 207 + 1;
#X obj 101 242 nbx 5 14 -1e+37 1e+37 0 0 empty empty empty 0 -8 0 10
-262144 -1 -1 0 256;
#X obj 101 322 div 4;
#X obj 101 348 + 1;
#X obj 199 350 + 1;
#X obj 191 376 outlet;
#X obj 215 101 expr ($i1 * 60) / 1000;
#X obj 215 29 inlet;
#X obj 215 132 outlet;
#X obj 237 233 inlet;
#X obj 236 264 t t f;
#X obj 192 322 mod 4;
#X obj 275 378 outlet;
#X obj 349 380 outlet;
#X obj 276 324 div 60;
#X obj 350 326 mod 60;
#X obj 356 155 t f f;
#X obj 355 124 bng 15 250 50 0 empty empty empty 17 7 0 10 -262144
-1 -1;
#X connect 0 0 6 0;
#X connect 3 0 4 0;
#X connect 5 0 22 0;
#X connect 5 0 23 0;
#X connect 6 0 7 0;
#X connect 7 0 8 0;
#X connect 7 0 9 0;
#X connect 8 0 7 1;
#X connect 9 0 10 0;
#X connect 9 0 19 0;
#X connect 10 0 11 0;
#X connect 11 0 1 0;
#X connect 14 0 16 0;
#X connect 15 0 14 0;
#X connect 17 0 18 0;
#X connect 18 0 19 1;
#X connect 18 1 10 1;
#X connect 19 0 13 0;
#X connect 22 0 20 0;
#X connect 23 0 21 0;
#X connect 24 0 5 0;
#X connect 24 1 3 0;
#X connect 25 0 24 0;
#X restore 322 409 pd timer_utility;
#X text 16 13 Uses lib Aubio to get several MIR information;
#X obj 230 69 inlet~ LeftAudio;
#X obj 351 69 inlet~ RightAudio;
#X obj 321 164 aubioquiet~;
#X obj 321 198 bng 15 250 50 0 empty empty empty 17 7 0 10 -262144
-1 -1;
#X obj 517 73 inlet on_off_switch;
#X obj 285 90 spigot~;
#X obj 351 90 spigot~;
#X obj 345 496 hradio 15 1 0 4 empty empty empty 0 -8 0 10 -262144
-1 -1 0;
#X text 325 321 METRONOM;
#X text 173 318 TEMPO // BPM;
#X obj 496 75 tgl 15 0 empty empty empty 17 7 0 10 -262144 -1 -1 0
1;
#X obj 19 257 s aubio_onset;
#X obj 123 257 s aubio_tempo;
#X obj 280 257 s aubio_tempo_bis;
#X obj 321 230 s aubio_quiet;
#X obj 422 230 s aubio_pitch;
#X obj 310 503 == 0;
#X obj 345 520 tgl 60 0 empty empty empty 17 7 0 10 -262144 -1 -1 0
1;
#X obj 158 544 s aubio_bpm;
#X obj 636 164 aubiotss~;
#X obj 636 219 vsl 15 128 0 127 0 0 empty empty empty 0 -9 0 10 -262144
-1 -1 0 1;
#X obj 636 188 env~;
#X obj 687 219 vsl 15 128 0 127 0 0 empty empty empty 0 -9 0 10 -262144
-1 -1 0 1;
#X obj 687 189 env~;
#X obj 636 141 hsl 100 15 0 1 0 0 empty empty empty -2 -8 0 10 -262144
-1 -1 0 0;
#X floatatom 698 164 5 0 0 0 - - -;
#X text 633 123 Variation Threshold;
#X obj 527 166 aubiozcr~;
#X floatatom 527 204 5 0 0 0 - - -;
#X obj 527 231 s aubio_zcr;
#X obj 468 372 i 0;
#X text 468 289 Reset all values;
#X obj 475 329 bng 15 250 50 0 empty empty empty 17 7 0 10 -262144
-1 -1;
#X obj 475 349 delay 1000;
#X obj 517 101 s aubio-off;
#X obj 468 306 r aubio-off;
#X obj 497 389 s aubio_reset;
#X obj 724 195 r aubio_reset;
#X obj 431 187 r aubio_reset;
#X obj 196 503 r aubio_reset;
#X obj 406 430 r aubio_reset;
#X connect 0 0 1 0;
#X connect 1 0 36 0;
#X connect 2 0 3 0;
#X connect 3 0 40 0;
#X connect 4 0 8 0;
#X connect 4 0 11 0;
#X connect 4 0 37 0;
#X connect 5 0 38 0;
#X connect 6 0 4 0;
#X connect 6 1 5 0;
#X connect 7 0 6 1;
#X connect 7 0 0 1;
#X connect 8 0 10 0;
#X connect 8 0 9 0;
#X connect 9 0 8 1;
#X connect 10 0 23 0;
#X connect 11 0 12 0;
#X connect 11 1 12 1;
#X connect 12 0 13 0;
#X connect 13 0 15 0;
#X connect 14 0 43 0;
#X connect 15 0 18 0;
#X connect 16 0 14 0;
#X connect 17 0 16 1;
#X connect 18 0 16 0;
#X connect 20 0 32 0;
#X connect 20 0 41 0;
#X connect 23 0 19 0;
#X connect 23 1 20 0;
#X connect 23 2 21 0;
#X connect 25 0 30 0;
#X connect 26 0 31 0;
#X connect 27 0 28 0;
#X connect 28 0 39 0;
#X connect 29 0 35 0;
#X connect 30 1 6 0;
#X connect 30 1 0 0;
#X connect 30 1 27 0;
#X connect 30 1 2 0;
#X connect 30 1 44 0;
#X connect 30 1 52 0;
#X connect 31 1 2 0;
#X connect 31 1 27 0;
#X connect 31 1 6 0;
#X connect 31 1 0 0;
#X connect 31 1 44 0;
#X connect 31 1 52 0;
#X connect 35 0 31 1;
#X connect 35 0 30 1;
#X connect 41 0 42 0;
#X connect 44 0 46 0;
#X connect 44 1 48 0;
#X connect 46 0 45 0;
#X connect 48 0 47 0;
#X connect 49 0 44 1;
#X connect 49 0 50 0;
#X connect 52 0 53 0;
#X connect 53 0 54 0;
#X connect 55 0 61 0;
#X connect 57 0 58 0;
#X connect 58 0 55 0;
#X connect 60 0 55 0;
#X connect 60 0 57 0;
#X connect 62 0 45 0;
#X connect 62 0 47 0;
#X connect 63 0 3 0;
#X connect 63 0 53 0;
#X connect 64 0 14 0;
#X connect 65 0 19 0;
#X connect 65 0 20 0;
#X restore 16 327 pd aubio;
#X text -51 -6 Turn On/Off Pd.DSP;
#N canvas 71 24 898 653 karmaFiddle 0;
#X obj -1170 289 nbx 5 14 -1e+37 1e+37 0 0 empty empty empty 0 -8 0
10 -262144 -1 -1 0 256;
#X obj -1115 319 unpack;
#X obj -1115 354 nbx 5 14 -1e+37 1e+37 0 0 empty empty empty 0 -8 0
10 -262144 -1 -1 0 256;
#X obj -1042 336 nbx 5 14 -1e+37 1e+37 0 0 empty empty empty 0 -8 0
10 -262144 -1 -1 0 256;
#X obj -1115 378 route 0;
#X obj -1087 278 nbx 5 14 -1e+37 1e+37 0 0 empty empty empty 0 -8 0
10 -262144 -1 -1 0 256;
#X obj -1042 391 > 50;
#X obj -1042 421 tgl 15 0 empty empty empty 17 7 0 10 -262144 -1 -1
0 1;
#X obj -1042 441 sel 1 0;
#X obj -1042 471 timer;
#X floatatom -1041 502 5 0 0 0 - - -;
#X obj -1041 554 tgl 15 0 empty empty empty 17 7 0 10 -262144 -1 -1
1 1;
#X text -1185 339 Attack;
#X obj -1114 409 nbx 5 14 -1e+37 1e+37 0 0 empty empty empty 0 -8 0
10 -262144 -1 -1 0 256;
#X text -1173 408 Raw Pitch;
#X text -1043 319 Raw Amplitude;
#X text -1093 107 1024 = FFT window size;
#X msg -1090 129 npoints 1024;
#X msg -1090 155 npoints 2048;
#X obj -1041 524 > 2000;
#X obj -1041 580 s silence;
#X text -1306 34 Uses the fiddle object to extract FFT and some other
information.;
#X obj -897 556 unpack;
#X obj -897 579 nbx 5 14 -1e+37 1e+37 0 0 empty empty empty 0 -8 0
10 -262144 -1 -1 0 256;
#X obj -864 579 nbx 5 14 -1e+37 1e+37 0 0 empty empty empty 0 -8 0
10 -262144 -1 -1 0 256;
#X obj -882 477 unpack;
#X text -899 34 5 EQUALIZER BANDS WITH THEIR PITCH (Hz) AND AMPLITUDE
(rms);
#X obj -882 497 nbx 5 14 -1e+37 1e+37 0 0 empty empty empty 0 -8 0
10 -262144 -1 -1 0 256;
#X obj -849 497 nbx 5 14 -1e+37 1e+37 0 0 empty empty empty 0 -8 0
10 -262144 -1 -1 0 256;
#X obj -866 398 unpack;
#X obj -866 418 nbx 5 14 -1e+37 1e+37 0 0 empty empty empty 0 -8 0
10 -262144 -1 -1 0 256;
#X obj -833 418 nbx 5 14 -1e+37 1e+37 0 0 empty empty empty 0 -8 0
10 -262144 -1 -1 0 256;
#X obj -850 319 unpack;
#X obj -850 339 nbx 5 14 -1e+37 1e+37 0 0 empty empty empty 0 -8 0
10 -262144 -1 -1 0 256;
#X obj -817 339 nbx 5 14 -1e+37 1e+37 0 0 empty empty empty 0 -8 0
10 -262144 -1 -1 0 256;
#X obj -834 241 unpack;
#X obj -834 261 nbx 5 14 -1e+37 1e+37 0 0 empty empty empty 0 -8 0
10 -262144 -1 -1 0 256;
#X obj -801 261 nbx 5 14 -1e+37 1e+37 0 0 empty empty empty 0 -8 0
10 -262144 -1 -1 0 256;
#X obj -1307 214 inlet~ LeftAudio;
#X obj -1300 238 inlet~ RightAudio;
#X text -1250 524 Bang Detects 2 sec non-variation;
#X text -1252 538 (potentially end of track/set);
#X text -996 523 ms;
#X obj -1241 307 s fiddle_pitch;
#X obj -897 616 s fft1p;
#X obj -864 596 s fft1a;
#X obj -849 513 s fft2a;
#X obj -866 454 s fft3p;
#X obj -833 435 s fft3a;
#X obj -850 375 s fft4p;
#X obj -817 356 s fft4a;
#X obj -834 297 s fft5p;
#X obj -801 278 s fft5a;
#X text -1247 288 Cooked Pitch;
#X text -1030 278 Amplitude (db);
#X obj -818 162 unpack;
#X obj -818 182 nbx 5 14 -1e+37 1e+37 0 0 empty empty empty 0 -8 0
10 -262144 -1 -1 0 256;
#X obj -785 182 nbx 5 14 -1e+37 1e+37 0 0 empty empty empty 0 -8 0
10 -262144 -1 -1 0 256;
#X obj -785 199 s fft6a;
#X obj -818 218 s fft6p;
#X obj -802 84 unpack;
#X obj -802 104 nbx 5 14 -1e+37 1e+37 0 0 empty empty empty 0 -8 0
10 -262144 -1 -1 0 256;
#X obj -769 104 nbx 5 14 -1e+37 1e+37 0 0 empty empty empty 0 -8 0
10 -262144 -1 -1 0 256;
#X obj -897 60 route 1 2 3 4 5 6 7;
#X obj -1170 255 fiddle~ 1024 1 50 7;
#X obj -802 140 s fft7p;
#X obj -769 121 s fft7a;
#X obj -882 532 s fft2p;
#X obj -1031 358 s fiddle_raw_amp;
#X obj -1087 296 s fiddle_amp;
#X obj -1282 109 inlet on_off_switch;
#X obj -1303 114 tgl 15 0 empty empty empty 17 7 0 10 -262144 -1 -1
0 1;
#X obj -1300 266 spigot~;
#X obj -1171 231 spigot~;
#X obj -1171 430 s fiddle_raw_pitch;
#X obj -1222 361 s fiddle_attack;
#X obj -1143 339 bng 15 250 50 0 empty empty empty 17 7 0 10 -262144
-1 -1;
#X obj -1260 173 bng 15 250 50 0 empty empty empty 17 7 0 10 -262144
-1 -1;
#X obj -1257 129 route 0 1;
#X obj -1235 173 i 1;
#X obj -646 479 r karma-fiddle-off;
#X obj -1365 188 s karma-fiddle-off;
#X obj -646 545 i 0;
#X text -646 462 Reset all values;
#X obj -639 502 bng 15 250 50 0 empty empty empty 17 7 0 10 -262144
-1 -1;
#X obj -1188 166 i 0;
#X obj -646 570 s fiddler_reset;
#X obj -710 87 r fiddler_reset;
#X obj -725 165 r fiddler_reset;
#X obj -738 244 r fiddler_reset;
#X obj -753 322 r fiddler_reset;
#X obj -771 401 r fiddler_reset;
#X obj -786 480 r fiddler_reset;
#X obj -795 562 r fiddler_reset;
#X obj -1029 261 r fiddler_reset;
#X obj -1283 393 r fiddler_reset;
#X msg -1188 191 auto \$1;
#X obj -639 522 delay 50;
#X connect 0 0 43 0;
#X connect 1 0 2 0;
#X connect 1 1 3 0;
#X connect 2 0 4 0;
#X connect 3 0 6 0;
#X connect 3 0 68 0;
#X connect 4 1 13 0;
#X connect 5 0 69 0;
#X connect 6 0 7 0;
#X connect 7 0 8 0;
#X connect 8 0 9 0;
#X connect 8 1 9 1;
#X connect 9 0 10 0;
#X connect 10 0 19 0;
#X connect 11 0 20 0;
#X connect 13 0 74 0;
#X connect 17 0 64 0;
#X connect 18 0 64 0;
#X connect 19 0 11 0;
#X connect 22 0 23 0;
#X connect 22 1 24 0;
#X connect 23 0 44 0;
#X connect 24 0 45 0;
#X connect 25 0 27 0;
#X connect 25 1 28 0;
#X connect 27 0 67 0;
#X connect 28 0 46 0;
#X connect 29 0 30 0;
#X connect 29 1 31 0;
#X connect 30 0 47 0;
#X connect 31 0 48 0;
#X connect 32 0 33 0;
#X connect 32 1 34 0;
#X connect 33 0 49 0;
#X connect 34 0 50 0;
#X connect 35 0 36 0;
#X connect 35 1 37 0;
#X connect 36 0 51 0;
#X connect 37 0 52 0;
#X connect 38 0 73 0;
#X connect 39 0 72 0;
#X connect 55 0 56 0;
#X connect 55 1 57 0;
#X connect 56 0 59 0;
#X connect 57 0 58 0;
#X connect 60 0 61 0;
#X connect 60 1 62 0;
#X connect 61 0 65 0;
#X connect 62 0 66 0;
#X connect 63 0 22 0;
#X connect 63 1 25 0;
#X connect 63 2 29 0;
#X connect 63 3 32 0;
#X connect 63 4 35 0;
#X connect 63 5 55 0;
#X connect 63 6 60 0;
#X connect 64 0 0 0;
#X connect 64 1 75 0;
#X connect 64 1 76 0;
#X connect 64 2 1 0;
#X connect 64 3 5 0;
#X connect 64 4 63 0;
#X connect 70 0 71 0;
#X connect 71 0 78 0;
#X connect 72 1 64 0;
#X connect 73 1 64 0;
#X connect 77 0 81 0;
#X connect 78 0 77 0;
#X connect 78 0 85 0;
#X connect 78 1 79 0;
#X connect 79 0 73 1;
#X connect 79 0 72 1;
#X connect 79 0 96 0;
#X connect 80 0 82 0;
#X connect 80 0 84 0;
#X connect 82 0 86 0;
#X connect 84 0 97 0;
#X connect 85 0 73 1;
#X connect 85 0 72 1;
#X connect 85 0 96 0;
#X connect 87 0 62 0;
#X connect 87 0 61 0;
#X connect 88 0 57 0;
#X connect 88 0 56 0;
#X connect 89 0 37 0;
#X connect 89 0 36 0;
#X connect 90 0 34 0;
#X connect 90 0 33 0;
#X connect 91 0 31 0;
#X connect 91 0 30 0;
#X connect 92 0 28 0;
#X connect 92 0 27 0;
#X connect 93 0 24 0;
#X connect 93 0 23 0;
#X connect 94 0 5 0;
#X connect 94 0 3 0;
#X connect 95 0 13 0;
#X connect 95 0 0 0;
#X connect 96 0 64 0;
#X connect 97 0 82 0;
#X restore 157 289 pd karmaFiddle;
#X text 89 408 OSC SERVER CONFIGURATION;
#X text -67 408 OSC ROUTING;
#X text 172 269 FFT & MORE;
#X obj -67 434 r osc_output;
#X obj 969 133 s osc_output;
#X obj 969 154 s osc_output;
#X obj 969 177 s osc_output;
#X obj 968 222 s osc_output;
#X obj 968 198 s osc_output;
#X obj 969 243 s osc_output;
#X obj 968 267 s osc_output;
#X obj 968 288 s osc_output;
#X obj 968 312 s osc_output;
#X obj 968 333 s osc_output;
#X floatatom 721 116 5 0 0 0 - - -;
#X floatatom 720 137 5 0 0 0 - - -;
#X floatatom 720 160 5 0 0 0 - - -;
#X floatatom 720 181 5 0 0 0 - - -;
#X floatatom 719 205 5 0 0 0 - - -;
#X floatatom 719 226 5 0 0 0 - - -;
#X floatatom 719 250 5 0 0 0 - - -;
#X floatatom 719 271 5 0 0 0 - - -;
#X floatatom 720 295 5 0 0 0 - - -;
#X floatatom 721 316 5 0 0 0 - - -;
#X msg 756 205 send /fiddle_fft/band3/pitch \$0;
#X msg 756 226 send /fiddle_fft/band3/rms \$0;
#X msg 756 250 send /fiddle_fft/band4/pitch \$0;
#X msg 756 271 send /fiddle_fft/band4/rms \$0;
#X msg 756 295 send /fiddle_fft/band5/rms \$0;
#X msg 756 316 send /fiddle_fft/band5/pitch \$0;
#X msg 757 160 send /fiddle_fft/band2/rms \$0;
#X msg 756 181 send /fiddle_fft/band2/pitch \$0;
#X msg 756 137 send /fiddle_fft/band1/rms \$0;
#X msg 756 116 send /fiddle_fft/band1/pitch \$0;
#X obj 669 581 s osc_output;
#X obj -45 191 hsl 100 15 0 1 0 0 0 ¸áÿ¿» 0 0 0 0 4 -262144 -1
-1 1300 0;
#X obj 669 407 r silence;
#X obj 669 299 r fft5p;
#X obj 669 278 r fft5a;
#X obj 669 254 r fft4p;
#X obj 669 233 r fft4a;
#X obj 669 209 r fft3p;
#X obj 669 188 r fft3a;
#X obj 669 164 r fft2p;
#X obj 669 143 r fft2a;
#X obj 670 120 r fft1p;
#X obj 670 99 r fft1a;
#X text 322 2 ROUTING;
#X text 323 17 - - - - - - - - - - - - - - - - - - - - - - - - - -
- - - -;
#X text -68 417 - - - - - - - - - - - - - - - - - - - - - - - - - -
;
#X text 683 17 - - - - - - - - - - - - - - - - - - - - - - - - - -
- - - -;
#X obj 731 407 r fiddle_pitch;
#X obj 938 407 r fiddle_attack;
#X obj 938 494 r fiddle_amp;
#X obj 238 251 tgl 15 0 empty empty empty 17 7 0 10 -262144 -1 -1 0
1;
#X text 183 249 (on/off);
#X obj 677 429 tgl 15 0 empty empty empty 17 7 0 10 -262144 -1 -1 1
1;
#X floatatom 737 428 5 0 0 0 - - -;
#X obj 822 407 r fiddle_raw_pitch;
#X floatatom 829 428 5 0 0 0 - - -;
#X floatatom 902 515 5 0 0 0 - - -;
#X floatatom 899 562 5 0 0 0 - - -;
#X obj 945 429 bng 15 250 50 0 empty empty empty 17 7 0 10 -262144
-1 -1;
#X obj 1038 429 i;
#X obj 1069 429 + 1;
#X floatatom 1003 446 5 0 0 0 - - -;
#X msg 459 241 send /aubioOnSet;
#X msg 459 195 send /aubioTempo;
#X msg 459 126 send /aubioPitch \$0;
#X obj 324 109 r aubio_pitch;
#X obj 324 132 r aubio_quiet;
#X obj 937 542 r fiddle_raw_amp;
#X msg 937 562 send /fiddleRawAmp \$0;
#X msg 938 515 send /fiddleAmp \$0;
#X msg 938 468 send /fiddleAttack \$0;
#X msg 822 448 send /fiddleRawPitch \$0;
#X msg 669 448 send /fiddleSilence \$0;
#X msg 731 469 send /fiddlePitch \$0;
#X msg 459 149 send /aubioQuiet \$0;
#X obj 61 308 tgl 15 0 empty empty empty 17 7 0 10 -262144 -1 -1 0
1;
#X text 80 307 (on/off);
#X floatatom 423 126 5 0 0 0 - - -;
#X obj 440 149 tgl 15 0 empty empty empty 17 7 0 10 -262144 -1 -1 0
1;
#X obj 323 155 r aubio_tempo_bis;
#X obj 441 172 bng 15 250 50 0 empty empty empty 17 7 0 10 -262144
-1 -1;
#X obj 323 201 r aubio_bpm;
#X msg 459 218 send /aubioBpm \$0;
#X floatatom 424 218 5 0 0 0 - - -;
#X obj 323 178 r aubio_tempo;
#X obj 441 195 bng 15 250 50 0 empty empty empty 17 7 0 10 -262144
-1 -1;
#X msg 459 172 send /aubioTempoBis \$0;
#X obj 323 224 r aubio_onset;
#X obj 441 241 bng 15 250 50 0 empty empty empty 17 7 0 10 -262144
-1 -1;
#X floatatom -38 213 5 0 0 0 - - -;
#X floatatom 423 263 5 0 0 0 - - -;
#X obj 322 246 r aubio_zcr;
#X msg 458 263 send /aubioZcr \$0;
#X text 322 28 All analysed data is routed to OSC messages in this
section;
#X text 82 326 LIB AUBIO;
#X text 668 77 FIDDLE FFT ROUTING;
#X text 668 385 FIDDLE :: [pitch \, attack \, silence \, amplitude]
ROUTING;
#X text 322 81 :: LIB AUBIO ROUTING ::;
#X text -51 132 SOUND OUTPUT;
#X text -26 172 Volume;
#X text -26 151 On/Off;
#X text 17 251 AUDIO SOURCE;
#X connect 0 0 9 0;
#X connect 0 0 16 0;
#X connect 0 0 18 0;
#X connect 0 1 9 0;
#X connect 0 1 16 1;
#X connect 0 1 18 1;
#X connect 1 0 2 0;
#X connect 1 1 3 0;
#X connect 4 0 1 0;
#X connect 5 0 1 0;
#X connect 6 0 1 0;
#X connect 7 0 1 0;
#X connect 8 0 54 0;
#X connect 9 0 10 0;
#X connect 9 0 10 1;
#X connect 11 0 4 0;
#X connect 12 0 13 0;
#X connect 15 0 14 0;
#X connect 22 0 1 0;
#X connect 43 0 26 0;
#X connect 44 0 28 0;
#X connect 45 0 29 0;
#X connect 46 0 30 0;
#X connect 47 0 31 0;
#X connect 48 0 32 0;
#X connect 49 0 25 0;
#X connect 50 0 27 0;
#X connect 51 0 24 0;
#X connect 52 0 23 0;
#X connect 54 0 9 1;
#X connect 54 0 112 0;
#X connect 55 0 95 0;
#X connect 55 0 75 0;
#X connect 56 0 48 0;
#X connect 56 0 42 0;
#X connect 57 0 47 0;
#X connect 57 0 41 0;
#X connect 58 0 46 0;
#X connect 58 0 40 0;
#X connect 59 0 45 0;
#X connect 59 0 39 0;
#X connect 60 0 44 0;
#X connect 60 0 38 0;
#X connect 61 0 43 0;
#X connect 61 0 37 0;
#X connect 62 0 50 0;
#X connect 62 0 36 0;
#X connect 63 0 49 0;
#X connect 63 0 35 0;
#X connect 64 0 51 0;
#X connect 64 0 34 0;
#X connect 65 0 52 0;
#X connect 65 0 33 0;
#X connect 70 0 96 0;
#X connect 70 0 76 0;
#X connect 71 0 93 0;
#X connect 71 0 81 0;
#X connect 72 0 92 0;
#X connect 72 0 79 0;
#X connect 73 0 18 2;
#X connect 77 0 94 0;
#X connect 77 0 78 0;
#X connect 81 0 82 0;
#X connect 82 0 83 0;
#X connect 82 0 84 0;
#X connect 83 0 82 1;
#X connect 88 0 87 0;
#X connect 88 0 100 0;
#X connect 89 0 97 0;
#X connect 89 0 101 0;
#X connect 90 0 91 0;
#X connect 90 0 80 0;
#X connect 91 0 53 0;
#X connect 92 0 53 0;
#X connect 93 0 53 0;
#X connect 94 0 53 0;
#X connect 95 0 53 0;
#X connect 96 0 53 0;
#X connect 98 0 16 2;
#X connect 102 0 109 0;
#X connect 102 0 103 0;
#X connect 104 0 106 0;
#X connect 104 0 105 0;
#X connect 107 0 108 0;
#X connect 107 0 86 0;
#X connect 110 0 85 0;
#X connect 110 0 111 0;
#X connect 114 0 113 0;
#X connect 114 0 115 0;
