#N canvas -1219 -10 1254 676 10;
#X declare -lib mrpeach;
#X obj 17 272 adc~;
#X msg 159 566 disconnect;
#X msg 159 489 typetags 1;
#X msg 159 513 typetags 0;
#X obj -48 152 tgl 15 0 empty empty empty 17 7 0 10 -262144 -1 -1 0
1;
#X obj -63 289 *~;
#X obj -63 337 dac~;
#X obj 88 484 loadbang;
#X obj 18 25 bng 15 250 50 0 empty empty empty 0 -6 0 10 -262144 -1
-1;
#X msg 18 63 \; pd dsp 1;
#X msg -49 64 \; pd dsp 0;
#X obj -49 27 bng 15 250 50 0 empty empty empty 0 -6 0 10 -262144 -1
-1;
#X text -51 -6 Turn On/Off Pd.DSP;
#N canvas 295 23 898 653 karmaFiddle 0;
#X obj -1170 289 nbx 5 14 -1e+37 1e+37 0 0 empty empty empty 0 -8 0
10 -262144 -1 -1 0 256;
#X obj -1115 319 unpack;
#X obj -1115 354 nbx 5 14 -1e+37 1e+37 0 0 empty empty empty 0 -8 0
10 -262144 -1 -1 0 256;
#X obj -1042 336 nbx 5 14 -1e+37 1e+37 0 0 empty empty empty 0 -8 0
10 -262144 -1 -1 0 256;
#X obj -1115 378 route 0;
#X obj -1087 278 nbx 5 14 -1e+37 1e+37 0 0 empty empty empty 0 -8 0
10 -262144 -1 -1 0 256;
#X obj -1042 391 > 50;
#X obj -1042 421 tgl 15 0 empty empty empty 17 7 0 10 -262144 -1 -1
0 1;
#X obj -1042 441 sel 1 0;
#X obj -1042 471 timer;
#X floatatom -1041 502 5 0 0 0 - - -;
#X obj -1041 554 tgl 15 0 empty empty empty 17 7 0 10 -262144 -1 -1
1 1;
#X text -1185 339 Attack;
#X obj -1114 409 nbx 5 14 -1e+37 1e+37 0 0 empty empty empty 0 -8 0
10 -262144 -1 -1 0 256;
#X text -1173 408 Raw Pitch;
#X text -1043 319 Raw Amplitude;
#X text -1093 107 1024 = FFT window size;
#X msg -1090 129 npoints 1024;
#X msg -1090 155 npoints 2048;
#X obj -1041 524 > 2000;
#X obj -1041 580 s silence;
#X text -1306 34 Uses the fiddle object to extract FFT and some other
information.;
#X obj -897 556 unpack;
#X obj -897 579 nbx 5 14 -1e+37 1e+37 0 0 empty empty empty 0 -8 0
10 -262144 -1 -1 0 256;
#X obj -864 579 nbx 5 14 -1e+37 1e+37 0 0 empty empty empty 0 -8 0
10 -262144 -1 -1 0 256;
#X obj -882 477 unpack;
#X text -899 34 5 EQUALIZER BANDS WITH THEIR PITCH (Hz) AND AMPLITUDE
(rms);
#X obj -882 497 nbx 5 14 -1e+37 1e+37 0 0 empty empty empty 0 -8 0
10 -262144 -1 -1 0 256;
#X obj -849 497 nbx 5 14 -1e+37 1e+37 0 0 empty empty empty 0 -8 0
10 -262144 -1 -1 0 256;
#X obj -866 398 unpack;
#X obj -866 418 nbx 5 14 -1e+37 1e+37 0 0 empty empty empty 0 -8 0
10 -262144 -1 -1 0 256;
#X obj -833 418 nbx 5 14 -1e+37 1e+37 0 0 empty empty empty 0 -8 0
10 -262144 -1 -1 0 256;
#X obj -850 319 unpack;
#X obj -850 339 nbx 5 14 -1e+37 1e+37 0 0 empty empty empty 0 -8 0
10 -262144 -1 -1 0 256;
#X obj -817 339 nbx 5 14 -1e+37 1e+37 0 0 empty empty empty 0 -8 0
10 -262144 -1 -1 0 256;
#X obj -834 241 unpack;
#X obj -834 261 nbx 5 14 -1e+37 1e+37 0 0 empty empty empty 0 -8 0
10 -262144 -1 -1 0 256;
#X obj -801 261 nbx 5 14 -1e+37 1e+37 0 0 empty empty empty 0 -8 0
10 -262144 -1 -1 0 256;
#X obj -1307 214 inlet~ LeftAudio;
#X obj -1300 238 inlet~ RightAudio;
#X text -1250 524 Bang Detects 2 sec non-variation;
#X text -1252 538 (potentially end of track/set);
#X text -996 523 ms;
#X obj -1241 307 s fiddle_pitch;
#X obj -897 616 s fft1p;
#X obj -864 596 s fft1a;
#X obj -849 513 s fft2a;
#X obj -866 454 s fft3p;
#X obj -833 435 s fft3a;
#X obj -850 375 s fft4p;
#X obj -817 356 s fft4a;
#X obj -834 297 s fft5p;
#X obj -801 278 s fft5a;
#X text -1247 288 Cooked Pitch;
#X text -1030 278 Amplitude (db);
#X obj -818 162 unpack;
#X obj -818 182 nbx 5 14 -1e+37 1e+37 0 0 empty empty empty 0 -8 0
10 -262144 -1 -1 0 256;
#X obj -785 182 nbx 5 14 -1e+37 1e+37 0 0 empty empty empty 0 -8 0
10 -262144 -1 -1 0 256;
#X obj -785 199 s fft6a;
#X obj -818 218 s fft6p;
#X obj -802 84 unpack;
#X obj -802 104 nbx 5 14 -1e+37 1e+37 0 0 empty empty empty 0 -8 0
10 -262144 -1 -1 0 256;
#X obj -769 104 nbx 5 14 -1e+37 1e+37 0 0 empty empty empty 0 -8 0
10 -262144 -1 -1 0 256;
#X obj -897 60 route 1 2 3 4 5 6 7;
#X obj -1170 255 fiddle~ 1024 1 50 7;
#X obj -802 140 s fft7p;
#X obj -769 121 s fft7a;
#X obj -882 532 s fft2p;
#X obj -1031 358 s fiddle_raw_amp;
#X obj -1087 296 s fiddle_amp;
#X obj -1282 109 inlet on_off_switch;
#X obj -1303 114 tgl 15 0 empty empty empty 17 7 0 10 -262144 -1 -1
1 1;
#X obj -1300 266 spigot~;
#X obj -1171 231 spigot~;
#X obj -1171 430 s fiddle_raw_pitch;
#X obj -1222 361 s fiddle_attack;
#X obj -1143 339 bng 15 250 50 0 empty empty empty 17 7 0 10 -262144
-1 -1;
#X obj -1260 173 bng 15 250 50 0 empty empty empty 17 7 0 10 -262144
-1 -1;
#X obj -1257 129 route 0 1;
#X obj -1235 173 i 1;
#X obj -646 479 r karma-fiddle-off;
#X obj -1365 188 s karma-fiddle-off;
#X obj -646 545 i 0;
#X text -646 462 Reset all values;
#X obj -639 502 bng 15 250 50 0 empty empty empty 17 7 0 10 -262144
-1 -1;
#X obj -1188 166 i 0;
#X obj -646 570 s fiddler_reset;
#X obj -710 87 r fiddler_reset;
#X obj -725 165 r fiddler_reset;
#X obj -738 244 r fiddler_reset;
#X obj -753 322 r fiddler_reset;
#X obj -771 401 r fiddler_reset;
#X obj -786 480 r fiddler_reset;
#X obj -795 562 r fiddler_reset;
#X obj -1029 261 r fiddler_reset;
#X obj -1283 393 r fiddler_reset;
#X msg -1188 191 auto \$1;
#X obj -639 522 delay 50;
#X floatatom -581 62 5 0 0 0 Sending_Freq_(ms) - -;
#X obj -558 111 loadbang;
#X obj -558 131 i 1;
#X obj -605 200 i;
#X obj -567 201 + 1;
#X floatatom -605 223 5 0 0 0 - - -;
#X obj -604 152 OSCCleanFloat 100;
#X obj -590 177 bng 15 250 50 0 empty empty empty 17 7 0 10 -262144
-1 -1;
#X connect 0 0 43 0;
#X connect 1 0 2 0;
#X connect 1 1 3 0;
#X connect 2 0 4 0;
#X connect 3 0 6 0;
#X connect 3 0 68 0;
#X connect 4 1 13 0;
#X connect 5 0 69 0;
#X connect 6 0 7 0;
#X connect 7 0 8 0;
#X connect 8 0 9 0;
#X connect 8 1 9 1;
#X connect 9 0 10 0;
#X connect 10 0 19 0;
#X connect 11 0 20 0;
#X connect 13 0 74 0;
#X connect 17 0 64 0;
#X connect 18 0 64 0;
#X connect 19 0 11 0;
#X connect 22 0 23 0;
#X connect 22 1 24 0;
#X connect 23 0 44 0;
#X connect 24 0 45 0;
#X connect 25 0 27 0;
#X connect 25 1 28 0;
#X connect 27 0 67 0;
#X connect 28 0 46 0;
#X connect 29 0 30 0;
#X connect 29 1 31 0;
#X connect 30 0 47 0;
#X connect 31 0 48 0;
#X connect 32 0 33 0;
#X connect 32 1 34 0;
#X connect 33 0 49 0;
#X connect 34 0 50 0;
#X connect 35 0 36 0;
#X connect 35 1 37 0;
#X connect 36 0 51 0;
#X connect 37 0 52 0;
#X connect 38 0 73 0;
#X connect 39 0 72 0;
#X connect 55 0 56 0;
#X connect 55 1 57 0;
#X connect 56 0 59 0;
#X connect 57 0 58 0;
#X connect 60 0 61 0;
#X connect 60 1 62 0;
#X connect 61 0 65 0;
#X connect 61 0 104 0;
#X connect 62 0 66 0;
#X connect 63 0 22 0;
#X connect 63 1 25 0;
#X connect 63 2 29 0;
#X connect 63 3 32 0;
#X connect 63 4 35 0;
#X connect 63 5 55 0;
#X connect 63 6 60 0;
#X connect 64 0 0 0;
#X connect 64 1 75 0;
#X connect 64 1 76 0;
#X connect 64 2 1 0;
#X connect 64 3 5 0;
#X connect 64 4 63 0;
#X connect 70 0 71 0;
#X connect 71 0 78 0;
#X connect 72 1 64 0;
#X connect 73 1 64 0;
#X connect 77 0 81 0;
#X connect 78 0 77 0;
#X connect 78 0 85 0;
#X connect 78 1 79 0;
#X connect 79 0 73 1;
#X connect 79 0 72 1;
#X connect 79 0 96 0;
#X connect 80 0 82 0;
#X connect 80 0 84 0;
#X connect 82 0 86 0;
#X connect 84 0 97 0;
#X connect 85 0 73 1;
#X connect 85 0 72 1;
#X connect 85 0 96 0;
#X connect 87 0 62 0;
#X connect 87 0 61 0;
#X connect 88 0 57 0;
#X connect 88 0 56 0;
#X connect 89 0 37 0;
#X connect 89 0 36 0;
#X connect 90 0 34 0;
#X connect 90 0 33 0;
#X connect 91 0 31 0;
#X connect 91 0 30 0;
#X connect 92 0 28 0;
#X connect 92 0 27 0;
#X connect 93 0 24 0;
#X connect 93 0 23 0;
#X connect 94 0 5 0;
#X connect 94 0 3 0;
#X connect 95 0 13 0;
#X connect 95 0 0 0;
#X connect 96 0 64 0;
#X connect 97 0 82 0;
#X connect 99 0 100 0;
#X connect 100 0 104 1;
#X connect 101 0 103 0;
#X connect 101 0 102 0;
#X connect 102 0 101 1;
#X connect 104 0 105 0;
#X connect 105 0 101 0;
#X restore 157 289 pd karmaFiddle;
#X text 89 458 OSC SERVER CONFIGURATION;
#X text -67 458 OSC ROUTING;
#X obj 989 133 s osc_output;
#X obj 989 154 s osc_output;
#X obj 989 177 s osc_output;
#X obj 988 222 s osc_output;
#X obj 988 198 s osc_output;
#X obj 989 243 s osc_output;
#X obj 988 267 s osc_output;
#X obj 988 288 s osc_output;
#X obj 988 312 s osc_output;
#X obj 988 333 s osc_output;
#X floatatom 741 116 5 0 0 0 - - -;
#X floatatom 740 137 5 0 0 0 - - -;
#X floatatom 740 160 5 0 0 0 - - -;
#X floatatom 740 181 5 0 0 0 - - -;
#X floatatom 739 205 5 0 0 0 - - -;
#X floatatom 739 226 5 0 0 0 - - -;
#X floatatom 739 250 5 0 0 0 - - -;
#X floatatom 739 271 5 0 0 0 - - -;
#X floatatom 740 295 5 0 0 0 - - -;
#X floatatom 741 316 5 0 0 0 - - -;
#X msg 776 205 send /fiddle_fft/band3/pitch \$0;
#X msg 776 226 send /fiddle_fft/band3/rms \$0;
#X msg 776 250 send /fiddle_fft/band4/pitch \$0;
#X msg 776 271 send /fiddle_fft/band4/rms \$0;
#X msg 776 295 send /fiddle_fft/band5/rms \$0;
#X msg 776 316 send /fiddle_fft/band5/pitch \$0;
#X msg 777 160 send /fiddle_fft/band2/rms \$0;
#X msg 776 181 send /fiddle_fft/band2/pitch \$0;
#X msg 776 137 send /fiddle_fft/band1/rms \$0;
#X msg 776 116 send /fiddle_fft/band1/pitch \$0;
#X obj 689 581 s osc_output;
#X obj -45 191 hsl 100 15 0 1 0 0 0 ¸áÿ¿» 0 0 0 0 4 -262144 -1
-1 0 0;
#X obj 689 407 r silence;
#X obj 689 299 r fft5p;
#X obj 689 278 r fft5a;
#X obj 689 254 r fft4p;
#X obj 689 233 r fft4a;
#X obj 689 209 r fft3p;
#X obj 689 188 r fft3a;
#X obj 689 164 r fft2p;
#X obj 689 143 r fft2a;
#X obj 690 120 r fft1p;
#X obj 690 99 r fft1a;
#X text 296 2 ROUTING;
#X text 297 17 - - - - - - - - - - - - - - - - - - - - - - - - - -
- - - -;
#X text -68 467 - - - - - - - - - - - - - - - - - - - - - - - - - -
;
#X text 657 17 - - - - - - - - - - - - - - - - - - - - - - - - - -
- - - -;
#X obj 751 407 r fiddle_pitch;
#X obj 958 407 r fiddle_attack;
#X obj 958 494 r fiddle_amp;
#X obj 238 251 tgl 15 0 empty empty empty 17 7 0 10 -262144 -1 -1 1
1;
#X text 183 249 (on/off);
#X obj 697 429 tgl 15 0 empty empty empty 17 7 0 10 -262144 -1 -1 1
1;
#X floatatom 757 428 5 0 0 0 - - -;
#X obj 842 407 r fiddle_raw_pitch;
#X floatatom 849 428 5 0 0 0 - - -;
#X floatatom 922 515 5 0 0 0 - - -;
#X floatatom 919 562 5 0 0 0 - - -;
#X obj 965 429 bng 15 250 50 0 empty empty empty 17 7 0 10 -262144
-1 -1;
#X obj 1058 429 i;
#X obj 1089 429 + 1;
#X floatatom 1023 446 5 0 0 0 - - -;
#X msg 434 265 send /aubioOnSet;
#X msg 434 219 send /aubioTempo;
#X obj 298 109 r aubio_pitch;
#X obj 298 132 r aubio_quiet;
#X obj 957 542 r fiddle_raw_amp;
#X msg 751 469 send /fiddlePitch \$0;
#X obj 61 318 tgl 15 0 empty empty empty 17 7 0 10 -262144 -1 -1 1
1;
#X text 80 317 (on/off);
#X obj 414 149 tgl 15 0 empty empty empty 17 7 0 10 -262144 -1 -1 0
1;
#X obj 298 179 r aubio_tempo_bis;
#X obj 416 196 bng 15 250 50 0 empty empty empty 17 7 0 10 -262144
-1 -1;
#X obj 298 225 r aubio_bpm;
#X floatatom 399 242 5 0 0 0 - - -;
#X obj 298 202 r aubio_tempo;
#X obj 416 219 bng 15 250 50 0 empty empty empty 17 7 0 10 -262144
-1 -1;
#X obj 298 248 r aubio_onset;
#X obj 416 265 bng 15 250 50 0 empty empty empty 17 7 0 10 -262144
-1 -1;
#X floatatom -38 213 5 0 0 0 - - -;
#X floatatom 398 287 5 0 0 0 - - -;
#X obj 297 270 r aubio_zcr;
#X text 296 28 All analysed data is routed to OSC messages in this
section;
#X text 688 77 FIDDLE FFT ROUTING;
#X text 688 385 FIDDLE :: [pitch \, attack \, silence \, amplitude]
ROUTING;
#X text 296 81 :: LIB AUBIO ROUTING ::;
#X text -51 132 SOUND OUTPUT;
#X text -26 172 Volume;
#X text -26 151 On/Off;
#X text 17 251 AUDIO SOURCE;
#X obj 583 166 s osc_output;
#X obj 583 282 s osc_output;
#X msg 434 196 send /aubioTempoBis;
#X obj 583 236 s osc_output;
#X msg 433 287 send /aubioZcr \$1;
#X msg 433 149 send /aubioQuiet \$1;
#X msg 433 126 send /aubioPitch \$1;
#X msg 958 515 send /fiddleAmp \$1;
#X msg 957 562 send /fiddleRawAmp \$1;
#X msg 842 448 send /fiddleRawPitch \$1;
#X msg 689 448 send /fiddleSilence \$1;
#X obj 176 234 loadbang;
#X obj -67 628 import mrpeach;
#X msg 88 540 connect localhost 12000;
#X msg 958 468 send /fiddleAttack;
#X obj -67 605 tgl 15 0 empty empty empty 17 7 0 10 -262144 -1 -1 1
1;
#X obj -67 540 spigot;
#X text 25 601 Alternatively \, you can use UDPsend;
#X text 26 617 with packOSC instead of sendOSC;
#X text -46 604 UDP State;
#X text 82 336 LIB AUBIO ANALYSIS;
#X text 116 269 FFT & MORE ANALYSIS;
#X obj 61 295 loadbang;
#X text 25 632 http://en.flossmanuals.net/pure-data/ch065_osc/;
#N canvas 178 23 997 667 aubio 0;
#X obj 41 161 aubioonset~;
#X obj 41 196 bng 15 250 50 0 empty empty empty 17 7 0 10 -262144 -1
-1;
#X obj 462 164 aubiopitch~;
#X obj 462 211 nbx 5 14 -1e+37 1e+37 0 0 empty empty empty 0 -8 0 10
-262144 -1 -1 0 256;
#X obj 130 197 bng 15 50 10 0 empty empty empty 17 7 0 10 -262144 -1
-1;
#X obj 217 198 bng 15 250 50 0 empty empty empty 17 7 0 10 -262144
-1 -1;
#X obj 130 163 aubiotempo~ 0.5;
#X obj 322 348 i;
#X obj 360 349 + 1;
#X floatatom 322 378 5 0 0 0 - - -;
#X obj 158 339 alternate;
#X obj 158 369 timer;
#X floatatom 158 395 5 0 0 0 - - -;
#X floatatom 158 520 5 0 0 0 - - -;
#X obj 158 422 expr ($i1 / 6) * 2;
#X obj 158 479 hid/hid_average;
#X floatatom 245 451 5 0 0 0 - - -;
#X floatatom 158 451 5 0 0 0 - - -;
#X floatatom 322 453 5 0 0 0 - - -;
#X floatatom 345 474 5 0 0 0 - - -;
#X floatatom 368 454 5 0 0 0 - - -;
#N canvas 837 96 511 413 timer_utility 0;
#X obj 101 28 inlet;
#X obj 101 377 outlet;
#X obj 160 28 inlet;
#X obj 394 185 sel 0;
#X obj 393 215 0;
#X obj 356 239 metro 1000;
#X obj 101 181 bng 15 250 50 0 empty empty empty 17 7 0 10 -262144
-1 -1;
#X obj 101 206 i;
#X obj 143 207 + 1;
#X obj 101 242 nbx 5 14 -1e+37 1e+37 0 0 empty empty empty 0 -8 0 10
-262144 -1 -1 0 256;
#X obj 101 322 div 4;
#X obj 101 348 + 1;
#X obj 199 350 + 1;
#X obj 191 376 outlet;
#X obj 215 101 expr ($i1 * 60) / 1000;
#X obj 215 29 inlet;
#X obj 215 132 outlet;
#X obj 237 233 inlet;
#X obj 236 264 t t f;
#X obj 192 322 mod 4;
#X obj 275 378 outlet;
#X obj 349 380 outlet;
#X obj 276 324 div 60;
#X obj 350 326 mod 60;
#X obj 356 155 t f f;
#X obj 355 124 bng 15 250 50 0 empty empty empty 17 7 0 10 -262144
-1 -1;
#X connect 0 0 6 0;
#X connect 3 0 4 0;
#X connect 5 0 22 0;
#X connect 5 0 23 0;
#X connect 6 0 7 0;
#X connect 7 0 8 0;
#X connect 7 0 9 0;
#X connect 8 0 7 1;
#X connect 9 0 10 0;
#X connect 9 0 19 0;
#X connect 10 0 11 0;
#X connect 11 0 1 0;
#X connect 14 0 16 0;
#X connect 15 0 14 0;
#X connect 17 0 18 0;
#X connect 18 0 19 1;
#X connect 18 1 10 1;
#X connect 19 0 13 0;
#X connect 22 0 20 0;
#X connect 23 0 21 0;
#X connect 24 0 5 0;
#X connect 24 1 3 0;
#X connect 25 0 24 0;
#X restore 322 409 pd timer_utility;
#X text 16 13 Uses lib Aubio to get several MIR information;
#X obj 230 69 inlet~ LeftAudio;
#X obj 351 69 inlet~ RightAudio;
#X obj 291 164 aubioquiet~;
#X obj 517 69 inlet on_off_switch;
#X obj 285 90 spigot~;
#X obj 351 90 spigot~;
#X obj 345 496 hradio 15 1 0 4 empty empty empty 0 -8 0 10 -262144
-1 -1 1;
#X text 325 321 METRONOM;
#X text 173 318 TEMPO // BPM;
#X obj 496 71 tgl 15 0 empty empty empty 17 7 0 10 -262144 -1 -1 1
1;
#X obj 41 257 s aubio_onset;
#X obj 130 257 s aubio_tempo;
#X obj 217 257 s aubio_tempo_bis;
#X obj 291 230 s aubio_quiet;
#X obj 462 256 s aubio_pitch;
#X obj 310 503 == 0;
#X obj 345 520 tgl 60 0 empty empty empty 17 7 0 10 -262144 -1 -1 0
1;
#X obj 158 544 s aubio_bpm;
#X obj 716 164 aubiotss~;
#X obj 716 249 vsl 15 100 0 1 0 0 empty empty empty 0 -9 0 10 -262144
-1 -1 0 1;
#X obj 716 188 env~;
#X obj 767 249 vsl 15 100 0 1 0 0 empty empty empty 0 -9 0 10 -262144
-1 -1 0 1;
#X obj 767 189 env~;
#X obj 716 141 hsl 100 15 0 1 0 0 empty empty empty -2 -8 0 10 -262144
-1 -1 0 0;
#X floatatom 778 164 5 0 0 0 - - -;
#X text 713 123 Variation Threshold;
#X obj 577 166 aubiozcr~;
#X floatatom 577 228 5 0 0 0 - - -;
#X obj 577 356 s aubio_zcr;
#X obj 19 526 i 0;
#X text 19 443 Reset all values;
#X obj 26 483 bng 15 250 50 0 empty empty empty 17 7 0 10 -262144 -1
-1;
#X obj 26 503 delay 1000;
#X obj 517 101 s aubio-off;
#X obj 19 460 r aubio-off;
#X obj 48 543 s aubio_reset;
#X obj 804 230 r aubio_reset;
#X obj 471 187 r aubio_reset;
#X obj 196 503 r aubio_reset;
#X obj 406 430 r aubio_reset;
#N canvas 775 308 450 300 clean_signal 0;
#X obj 51 133 ==;
#X obj 93 116 f;
#X floatatom 102 139 5 0 0 0 - - -;
#X text 24 10 SIGNAL CLEANER;
#X obj 51 68 inlet float;
#X obj 51 156 sel 0;
#X obj 93 163 outlet float;
#X text 25 24 Prevents resending bangs when the float value has not
changed. (Sort of flood filter);
#X connect 0 0 5 0;
#X connect 1 0 0 1;
#X connect 1 0 2 0;
#X connect 1 0 6 0;
#X connect 4 0 1 1;
#X connect 4 0 0 0;
#X connect 5 0 1 0;
#X restore 462 233 pd clean_signal;
#X floatatom 577 289 5 0 0 0 - - -;
#X obj 543 305 -;
#X obj 543 327 abs;
#X obj 526 396 sqrt;
#X obj 577 248 average 10;
#X text 13 65 Treshold Tempo;
#X text 14 88 Treshold OnSet;
#X obj 591 268 r aubio_reset;
#X floatatom 634 227 5 0 20 2 - - -;
#X text 584 211 Zcr;
#X text 613 290 Smoothed;
#N canvas 960 356 450 300 clean_signal 0;
#X obj 51 133 ==;
#X obj 93 116 f;
#X floatatom 102 139 5 0 0 0 - - -;
#X text 24 10 SIGNAL CLEANER;
#X obj 51 68 inlet float;
#X obj 51 156 sel 0;
#X obj 93 163 outlet float;
#X text 25 24 Prevents resending bangs when the float value has not
changed. (Sort of flood filter);
#X connect 0 0 5 0;
#X connect 1 0 0 1;
#X connect 1 0 2 0;
#X connect 1 0 6 0;
#X connect 4 0 1 1;
#X connect 4 0 0 0;
#X connect 5 0 1 0;
#X restore 577 332 pd clean_signal;
#X obj 560 378 r aubio_reset;
#X obj 580 400 hsl 100 15 0 1 0 0 empty empty empty -2 -8 0 10 -262144
-1 -1 0 1;
#X obj 580 418 hsl 100 15 0 1 0 0 empty empty empty -2 -8 0 10 -262144
-1 -1 0 1;
#X obj 496 305 hsl 40 15 -0.1 0.1 0 0 empty empty empty -2 -8 0 10
-262144 -1 -1 0 1;
#X floatatom 154 68 5 0 0 0 - - -;
#X text 629 198 Smoothing;
#X text 630 209 Treshold;
#X obj 107 68 hsl 40 15 0 10 0 0 empty empty empty -2 -8 0 10 -262144
-1 -1 0 1;
#X floatatom 154 88 5 0 0 0 - - -;
#X obj 107 89 hsl 40 15 0 15 0 0 empty empty empty -2 -8 0 10 -262144
-1 -1 0 1;
#X floatatom 506 324 5 0 0 0 - - -;
#X text 102 46 PARAMETERS;
#X text 491 288 Treshold;
#X obj 716 440 <;
#X obj 722 414 f 0.005;
#X obj 767 210 / 127;
#X obj 716 210 / 127;
#X obj 722 393 loadbang;
#X obj 787 251 vsl 15 100 -1 1 0 0 empty empty empty 0 -9 0 10 -262144
-1 -1 4950 1;
#X obj 846 324 -;
#X obj 577 310 * 5;
#X obj 478 344 -;
#X text 575 433 ZeroCross Variation;
#X obj 529 379 * 2;
#X obj 497 361 average 3;
#X text 384 579 comment;
#X obj 767 440 <;
#X obj 722 376 bng 15 250 50 0 empty empty empty 17 7 0 10 -262144
-1 -1;
#X obj 752 466 == 0;
#X obj 716 491 &;
#N canvas 775 308 450 300 clean_signal 0;
#X obj 51 133 ==;
#X obj 93 116 f;
#X floatatom 102 139 5 0 0 0 - - -;
#X text 24 10 SIGNAL CLEANER;
#X obj 51 68 inlet float;
#X obj 51 156 sel 0;
#X obj 93 163 outlet float;
#X text 25 24 Prevents resending bangs when the float value has not
changed. (Sort of flood filter);
#X connect 0 0 5 0;
#X connect 1 0 0 1;
#X connect 1 0 2 0;
#X connect 1 0 6 0;
#X connect 4 0 1 1;
#X connect 4 0 0 0;
#X connect 5 0 1 0;
#X restore 716 512 pd clean_signal;
#X obj 291 209 tgl 15 0 empty empty empty 17 7 0 10 -262144 -1 -1 0
1;
#X obj 291 188 i 1;
#X obj 716 535 tgl 15 0 empty empty empty 17 7 0 10 -262144 -1 -1 0
1;
#X obj 716 467 == 0;
#X text 737 533 isPlaying;
#X obj 716 556 s aubio_is_playing;
#X obj 320 188 r aubio_is_playing;
#X obj 343 208 sel 1;
#X obj 311 209 i 0;
#X obj 846 347 average 30;
#X obj 846 370 sqrt;
#X text 810 277 (~Sound similarity indicator);
#X text 575 447 (~cymbal detection);
#X floatatom 623 312 5 0 0 0 - - -;
#X connect 0 0 1 0;
#X connect 1 0 33 0;
#X connect 2 0 3 0;
#X connect 3 0 63 0;
#X connect 4 0 7 0;
#X connect 4 0 10 0;
#X connect 4 0 34 0;
#X connect 5 0 35 0;
#X connect 6 0 4 0;
#X connect 6 1 5 0;
#X connect 7 0 9 0;
#X connect 7 0 8 0;
#X connect 8 0 7 1;
#X connect 9 0 21 0;
#X connect 10 0 11 0;
#X connect 10 1 11 1;
#X connect 11 0 12 0;
#X connect 12 0 14 0;
#X connect 13 0 40 0;
#X connect 14 0 17 0;
#X connect 15 0 13 0;
#X connect 16 0 15 1;
#X connect 17 0 15 0;
#X connect 19 0 29 0;
#X connect 19 0 38 0;
#X connect 21 0 18 0;
#X connect 21 1 19 0;
#X connect 21 2 20 0;
#X connect 23 0 27 0;
#X connect 24 0 28 0;
#X connect 25 0 108 0;
#X connect 26 0 32 0;
#X connect 27 1 6 0;
#X connect 27 1 0 0;
#X connect 27 1 25 0;
#X connect 27 1 2 0;
#X connect 27 1 41 0;
#X connect 27 1 49 0;
#X connect 28 1 2 0;
#X connect 28 1 25 0;
#X connect 28 1 6 0;
#X connect 28 1 0 0;
#X connect 28 1 41 0;
#X connect 28 1 49 0;
#X connect 32 0 28 1;
#X connect 32 0 27 1;
#X connect 32 0 56 0;
#X connect 38 0 39 0;
#X connect 41 0 43 0;
#X connect 41 1 45 0;
#X connect 42 0 95 0;
#X connect 42 0 89 0;
#X connect 43 0 92 0;
#X connect 44 0 95 1;
#X connect 44 0 102 0;
#X connect 45 0 91 0;
#X connect 46 0 41 1;
#X connect 46 0 47 0;
#X connect 49 0 50 0;
#X connect 50 0 68 0;
#X connect 50 0 65 1;
#X connect 52 0 58 0;
#X connect 54 0 55 0;
#X connect 55 0 52 0;
#X connect 57 0 52 0;
#X connect 57 0 54 0;
#X connect 59 0 42 0;
#X connect 59 0 44 0;
#X connect 60 0 3 0;
#X connect 61 0 13 0;
#X connect 62 0 18 0;
#X connect 62 0 19 0;
#X connect 63 0 37 0;
#X connect 64 0 65 0;
#X connect 64 0 96 0;
#X connect 65 0 66 0;
#X connect 66 0 97 0;
#X connect 67 0 78 0;
#X connect 68 0 64 0;
#X connect 71 0 64 0;
#X connect 72 0 68 1;
#X connect 75 0 51 0;
#X connect 75 0 120 0;
#X connect 76 0 78 0;
#X connect 76 0 96 0;
#X connect 79 0 86 0;
#X connect 79 0 97 1;
#X connect 83 0 80 0;
#X connect 83 0 6 1;
#X connect 85 0 84 0;
#X connect 85 0 0 1;
#X connect 89 0 104 0;
#X connect 89 0 110 0;
#X connect 90 0 89 1;
#X connect 90 0 102 1;
#X connect 91 0 44 0;
#X connect 92 0 42 0;
#X connect 93 0 90 0;
#X connect 95 0 116 0;
#X connect 96 0 77 0;
#X connect 96 0 75 0;
#X connect 97 0 100 0;
#X connect 99 0 67 0;
#X connect 100 0 99 0;
#X connect 102 0 104 0;
#X connect 104 0 105 1;
#X connect 105 0 106 0;
#X connect 106 0 109 0;
#X connect 107 0 36 0;
#X connect 108 0 107 0;
#X connect 109 0 112 0;
#X connect 110 0 105 0;
#X connect 113 0 114 0;
#X connect 114 0 115 0;
#X connect 115 0 107 0;
#X connect 116 0 117 0;
#X connect 117 0 94 0;
#X restore 16 337 pd aubio;
#X obj -11 517 spigot;
#X obj 22 443 tgl 15 0 empty empty empty 17 7 0 10 -262144 -1 -1 0
1;
#X obj -11 540 print;
#X floatatom 398 126 5 0 0 0 - - -;
#X text 40 442 Print Output to Console;
#X obj 583 143 s osc_output;
#X obj 584 213 s osc_output;
#X msg 434 242 send /aubioBpm \$1;
#X obj 583 259 s osc_output;
#X obj 583 190 s osc_output;
#X obj 584 304 s osc_output;
#X text 658 7 Todo: - http://forumnet.ircam.fr/product/antescofo/?lang=en
;
#X obj 298 156 r aubio_is_playing;
#X msg 433 173 send /aubioIsPlaying \$1;
#X obj 415 173 tgl 15 0 empty empty empty 17 7 0 10 -262144 -1 -1 0
1;
#X obj 15 368 -~;
#X floatatom 15 415 5 0 0 0 - - -;
#X obj 56 414 sqrt;
#X obj 93 369 vsl 15 60 -1 1 0 0 empty empty empty 0 -9 0 10 -262144
-1 -1 0 1;
#X text 43 371 Balance;
#X obj 15 393 average~ 200;
#X obj -67 484 r osc_output;
#X obj 113 415 s osc_output;
#N canvas 775 308 450 300 clean_signal 0;
#X obj 51 133 ==;
#X obj 93 116 f;
#X floatatom 102 139 5 0 0 0 - - -;
#X text 24 10 SIGNAL CLEANER;
#X obj 51 68 inlet float;
#X obj 51 156 sel 0;
#X obj 93 163 outlet float;
#X text 25 24 Prevents resending bangs when the float value has not
changed. (Sort of flood filter);
#X connect 0 0 5 0;
#X connect 1 0 0 1;
#X connect 1 0 2 0;
#X connect 1 0 6 0;
#X connect 4 0 1 1;
#X connect 4 0 0 0;
#X connect 5 0 1 0;
#X restore 113 375 pd clean_signal;
#X msg 113 395 send /balance \$1;
#X text 275 383 Many OSC optimisation todo here \, frequency and packing
stuff. See resample.pd and sendmany-osc.pd;
#X text 102 21 Make sure to run this with;
#X text 103 39 Pd-Extended 0.43.4;
#X msg 247 541 connect 192.168.0.14 12000;
#X obj -67 583 sendOSC;
#X connect 0 0 5 0;
#X connect 0 0 13 0;
#X connect 0 0 130 0;
#X connect 0 0 146 0;
#X connect 0 1 5 0;
#X connect 0 1 13 1;
#X connect 0 1 130 1;
#X connect 0 1 146 1;
#X connect 1 0 160 0;
#X connect 2 0 160 0;
#X connect 3 0 160 0;
#X connect 4 0 47 0;
#X connect 5 0 6 0;
#X connect 5 0 6 1;
#X connect 7 0 119 0;
#X connect 8 0 9 0;
#X connect 11 0 10 0;
#X connect 36 0 19 0;
#X connect 37 0 21 0;
#X connect 38 0 22 0;
#X connect 39 0 23 0;
#X connect 40 0 24 0;
#X connect 41 0 25 0;
#X connect 42 0 18 0;
#X connect 43 0 20 0;
#X connect 44 0 17 0;
#X connect 45 0 16 0;
#X connect 47 0 5 1;
#X connect 47 0 95 0;
#X connect 48 0 116 0;
#X connect 48 0 68 0;
#X connect 49 0 41 0;
#X connect 49 0 35 0;
#X connect 50 0 40 0;
#X connect 50 0 34 0;
#X connect 51 0 39 0;
#X connect 51 0 33 0;
#X connect 52 0 38 0;
#X connect 52 0 32 0;
#X connect 53 0 37 0;
#X connect 53 0 31 0;
#X connect 54 0 36 0;
#X connect 54 0 30 0;
#X connect 55 0 43 0;
#X connect 55 0 29 0;
#X connect 56 0 42 0;
#X connect 56 0 28 0;
#X connect 57 0 44 0;
#X connect 57 0 27 0;
#X connect 58 0 45 0;
#X connect 58 0 26 0;
#X connect 63 0 83 0;
#X connect 63 0 69 0;
#X connect 64 0 120 0;
#X connect 64 0 74 0;
#X connect 65 0 113 0;
#X connect 65 0 72 0;
#X connect 66 0 13 2;
#X connect 70 0 115 0;
#X connect 70 0 71 0;
#X connect 74 0 75 0;
#X connect 75 0 76 0;
#X connect 75 0 77 0;
#X connect 76 0 75 1;
#X connect 78 0 107 0;
#X connect 79 0 109 0;
#X connect 80 0 134 0;
#X connect 80 0 112 0;
#X connect 81 0 111 0;
#X connect 81 0 86 0;
#X connect 82 0 114 0;
#X connect 82 0 73 0;
#X connect 83 0 46 0;
#X connect 84 0 130 2;
#X connect 87 0 108 0;
#X connect 87 0 88 0;
#X connect 89 0 90 0;
#X connect 89 0 138 0;
#X connect 91 0 92 0;
#X connect 91 0 79 0;
#X connect 93 0 78 0;
#X connect 93 0 94 0;
#X connect 97 0 96 0;
#X connect 97 0 110 0;
#X connect 108 0 137 0;
#X connect 110 0 141 0;
#X connect 111 0 106 0;
#X connect 112 0 136 0;
#X connect 113 0 46 0;
#X connect 114 0 46 0;
#X connect 115 0 46 0;
#X connect 116 0 46 0;
#X connect 117 0 66 0;
#X connect 119 0 160 0;
#X connect 120 0 46 0;
#X connect 121 0 122 1;
#X connect 122 0 131 0;
#X connect 122 0 160 0;
#X connect 128 0 84 0;
#X connect 131 0 133 0;
#X connect 132 0 131 1;
#X connect 138 0 139 0;
#X connect 143 0 144 0;
#X connect 143 0 145 0;
#X connect 144 0 140 0;
#X connect 146 0 151 0;
#X connect 147 0 148 0;
#X connect 148 0 149 0;
#X connect 149 0 154 0;
#X connect 151 0 147 0;
#X connect 152 0 122 0;
#X connect 154 0 155 0;
#X connect 155 0 153 0;
#X connect 159 0 160 0;
#X connect 160 0 121 0;
