#N canvas 0 22 450 300 10;
#X obj 17 163 +;
#X floatatom 137 55 5 0 0 2 numSamples #1-numSamples -, f 5;
#X floatatom 68 149 5 0 0 1 Buffer - -, f 5;
#X obj 17 249 outlet;
#X floatatom 17 214 5 0 0 1 Current_AVG - -, f 5;
#X obj 17 86 *, f 4;
#X obj 17 10 inlet;
#X obj 91 14 loadbang;
#X obj 91 41 i 1;
#X obj 91 69 /;
#X obj 68 122 *;
#X obj 137 88 - 1;
#X obj 102 105 /;
#X connect 0 0 4 0;
#X connect 1 0 9 1;
#X connect 1 0 11 0;
#X connect 1 0 12 1;
#X connect 2 0 0 1;
#X connect 4 0 3 0;
#X connect 4 0 10 0;
#X connect 5 0 0 0;
#X connect 6 0 5 0;
#X connect 7 0 8 0;
#X connect 8 0 9 0;
#X connect 9 0 5 1;
#X connect 10 0 2 0;
#X connect 11 0 12 0;
#X connect 12 0 10 1;
