#N canvas 0 22 450 300 10;
#X obj 57 24 inlet;
#X obj 57 132 == 1;
#X obj 24 183 spigot;
#X obj 74 183 spigot;
#X obj 24 98 bng 15 250 50 0 empty empty empty 17 7 0 10 -262144 -1
-1;
#X obj 24 232 outlet;
#X obj 74 232 outlet;
#X obj 57 59 bng 15 250 50 0 empty empty empty 17 7 0 10 -262144 -1
-1;
#X obj 57 107 + 1;
#X obj 57 83 i 0;
#X obj 37 210 bng 15 250 50 0 empty empty empty 17 7 0 10 -262144 -1
-1;
#X obj 87 209 bng 15 250 50 0 empty empty empty 17 7 0 10 -262144 -1
-1;
#X obj 94 133 == 2;
#X connect 0 0 7 0;
#X connect 1 0 2 1;
#X connect 1 0 9 1;
#X connect 2 0 5 0;
#X connect 2 0 10 0;
#X connect 3 0 6 0;
#X connect 3 0 11 0;
#X connect 4 0 2 0;
#X connect 4 0 3 0;
#X connect 7 0 4 0;
#X connect 7 0 9 0;
#X connect 8 0 1 0;
#X connect 8 0 12 0;
#X connect 9 0 8 0;
#X connect 12 0 3 1;
