#N canvas 5 83 494 476 10;
#X obj 17 285 +;
#X floatatom 178 85 5 0 0 2 maxNumSamples - -, f 5;
#X obj 17 354 outlet;
#X floatatom 17 319 5 0 0 1 Current_AVG - -, f 5;
#X obj 17 126 *, f 4;
#X obj 17 10 inlet;
#X obj 91 109 /;
#X obj 122 180 *;
#X obj 137 152 /;
#X floatatom 91 134 5 0 0 0 newValueWeight - -, f 5;
#X obj 91 17 bng 15 250 50 0 empty empty empty 17 7 0 10 -262144 -1
-1;
#X obj 137 52 i \$1;
#X floatatom 122 207 5 0 0 1 Buffer - -, f 5;
#X obj 25 159 nbx 5 14 -1e+37 1e+37 0 0 empty empty empty 0 -8 0 10
-262144 -1 -1 0 256;
#X obj 137 127 i 1;
#X obj 90 295 -;
#X obj 163 182 nbx 5 14 -1e+37 1e+37 0 0 empty empty empty 0 -8 0 10
-262144 -1 -1 1 256;
#X obj 137 32 bng 15 250 50 0 empty empty empty 17 7 0 10 -262144 -1
-1;
#X obj 261 92 i 0;
#X obj 275 34 + 1;
#X text 291 94 currentNumSamples;
#X obj 260 118 nbx 5 14 -1e+37 1e+37 0 0 empty empty empty 0 -8 0 10
-262144 -1 -1 0 256;
#X obj 175 231 bng 15 250 50 0 empty empty empty 17 7 0 10 -262144
-1 -1;
#X obj 91 41 i 1;
#X obj 137 11 loadbang;
#X obj 64 72 nbx 5 14 -1e+37 1e+37 0 0 empty empty empty 0 -8 0 10
-262144 -1 -1 1 256;
#X obj 361 158 nbx 5 14 -1e+37 1e+37 0 0 empty empty empty 0 -8 0 10
-262144 -1 -1 0 256;
#X obj 327 64 nbx 5 14 -1e+37 1e+37 0 0 empty empty empty 0 -8 0 10
-262144 -1 -1 0 256;
#X obj 276 66 <;
#X obj 219 23 == 1;
#X connect 0 0 3 0;
#X connect 0 0 22 0;
#X connect 3 0 2 0;
#X connect 3 0 7 0;
#X connect 3 0 15 0;
#X connect 4 0 0 0;
#X connect 4 0 13 0;
#X connect 5 0 4 0;
#X connect 6 0 4 1;
#X connect 6 0 9 0;
#X connect 7 0 12 0;
#X connect 8 0 7 1;
#X connect 8 0 16 0;
#X connect 10 0 23 0;
#X connect 11 0 8 1;
#X connect 11 0 1 0;
#X connect 11 0 14 0;
#X connect 11 0 27 0;
#X connect 11 0 28 1;
#X connect 12 0 15 1;
#X connect 14 0 8 0;
#X connect 15 0 0 1;
#X connect 17 0 11 0;
#X connect 18 0 19 0;
#X connect 18 0 21 0;
#X connect 18 0 6 1;
#X connect 19 0 28 0;
#X connect 19 0 23 1;
#X connect 22 0 18 0;
#X connect 23 0 6 0;
#X connect 23 0 25 0;
#X connect 24 0 17 0;
#X connect 28 0 18 1;
#X connect 28 0 29 0;
#X connect 29 0 10 0;
