#N canvas 21 40 265 295 10;
#X obj 17 163 +;
#X floatatom 169 73 5 0 0 2 numSamples - -, f 5;
#X obj 17 249 outlet;
#X floatatom 17 214 5 0 0 1 Current_AVG - -, f 5;
#X obj 17 86 *, f 4;
#X obj 17 10 inlet;
#X obj 137 11 loadbang;
#X obj 91 41 i 1;
#X obj 91 69 /;
#X obj 68 122 *;
#X obj 137 88 - 1;
#X obj 102 105 /;
#X floatatom 58 93 5 0 0 0 - - -, f 5;
#X obj 91 17 bng 15 250 50 0 empty empty empty 17 7 0 10 -262144 -1
-1;
#X obj 137 52 i \$1;
#X floatatom 68 149 5 0 0 1 Buffer - -, f 5;
#X connect 0 0 3 0;
#X connect 3 0 2 0;
#X connect 3 0 9 0;
#X connect 4 0 0 0;
#X connect 5 0 4 0;
#X connect 6 0 14 0;
#X connect 7 0 8 0;
#X connect 8 0 4 1;
#X connect 8 0 12 0;
#X connect 9 0 15 0;
#X connect 10 0 11 0;
#X connect 11 0 9 1;
#X connect 13 0 7 0;
#X connect 14 0 11 1;
#X connect 14 0 8 1;
#X connect 14 0 10 0;
#X connect 14 0 1 0;
#X connect 14 0 13 0;
#X connect 15 0 0 1;
