#N canvas 984 130 433 415 10;
#X obj 28 273 list prepend send;
#X obj 28 296 list trim;
#X obj 28 126 spigot;
#X obj 61 103 tgl 15 0 empty empty empty 17 7 0 10 -262144 -1 -1 0
1;
#X obj 111 86 r osc_status;
#X text 77 105 Broadcasting;
#X text 116 333 Receive this with your OSC sender;
#X obj 28 332 s osc_out_raw;
#X obj 89 59 inlet enabled;
#X obj 28 6 inlet value;
#X obj 61 59 i 1;
#X obj 61 34 loadbang;
#X obj 156 143 + 1;
#X floatatom 125 168 5 0 0 0 - - -, f 5;
#X obj 125 143 i 0;
#X obj 104 143 bng 15 250 50 0 empty empty empty 17 7 0 10 -262144
-1 -1;
#X text 161 167 Message counter;
#X obj 28 250 oscformat /kmsa\$1;
#X obj 28 154 route bang;
#X obj 28 190 i 1;
#X obj 6 171 bng 15 250 50 0 empty empty empty 17 7 0 10 -262144 -1
-1;
#X obj 70 226 i 0;
#X obj 70 206 delay 10;
#X connect 0 0 1 0;
#X connect 1 0 7 0;
#X connect 2 0 15 0;
#X connect 2 0 18 0;
#X connect 3 0 2 1;
#X connect 4 0 3 0;
#X connect 8 0 3 0;
#X connect 9 0 2 0;
#X connect 10 0 3 0;
#X connect 11 0 10 0;
#X connect 12 0 14 1;
#X connect 14 0 12 0;
#X connect 14 0 13 0;
#X connect 15 0 14 0;
#X connect 17 0 0 0;
#X connect 18 0 19 0;
#X connect 18 0 20 0;
#X connect 18 1 17 0;
#X connect 19 0 17 0;
#X connect 19 0 22 0;
#X connect 21 0 17 0;
#X connect 22 0 21 0;
