#N canvas 480 229 464 395 10;
#X msg 10 145 disconnect;
#X obj 87 235 tgl 15 0 empty empty empty 17 7 0 10 -262144 -1 -1 0
1;
#X obj 288 80 netreceive -u -b;
#X msg 288 133;
#X obj 130 139 list prepend send;
#X obj 130 164 list trim;
#X obj 288 105 oscparse;
#X obj 130 113 oscformat /path;
#X msg 130 89 bang;
#X obj 288 165 bng 15 250 50 0 empty empty empty 17 7 0 10 -262144
-1 -1;
#X obj 345 141 print RECV;
#X obj 209 272 oscformat /paaath;
#X msg 288 43 listen 1200;
#X msg 121 247 test;
#X obj 207 297 list prepend send;
#X obj 207 325 list trim;
#X floatatom 146 225 5 0 0 0 - - -, f 5;
#X obj 86 196 netsend -u -b;
#X msg 86 33 connect localhost 9990;
#X msg 204 226 bang;
#X symbolatom 351 209 10 0 0 0 - - -, f 10;
#X msg 256 198 test;
#X obj 254 225 symbol;
#X obj 12 234 list trim;
#X obj 42 296 list prepend send;
#X msg 42 272 oscformat /foo;
#X msg 269 17 listen 9990;
#X connect 0 0 17 0;
#X connect 2 0 6 0;
#X connect 3 0 9 0;
#X connect 4 0 5 0;
#X connect 5 0 17 0;
#X connect 6 0 3 0;
#X connect 6 0 10 0;
#X connect 6 0 20 0;
#X connect 7 0 4 0;
#X connect 8 0 7 0;
#X connect 11 0 14 0;
#X connect 12 0 2 0;
#X connect 13 0 25 0;
#X connect 14 0 15 0;
#X connect 15 0 17 0;
#X connect 16 0 25 0;
#X connect 17 0 1 0;
#X connect 18 0 17 0;
#X connect 19 0 11 0;
#X connect 21 0 22 0;
#X connect 22 0 11 0;
#X connect 23 0 17 0;
#X connect 24 0 23 0;
#X connect 25 0 24 0;
#X connect 26 0 2 0;
