#N canvas 34 132 545 493 10;
#X obj 182 243 metro \$1;
#X obj -28 119 inlet;
#X obj 182 221 != 0;
#X obj 192 146 \$1;
#X obj 218 146 loadbang;
#X text 213 169 Default Frequency (ms);
#X obj -49 193 tgl 15 0 empty empty Frequency_Controll_[on/off] 17
7 0 10 -262144 -1 -1 1 1;
#X obj -82 119 inlet;
#X text -149 119 Data input;
#X obj -49 238 != 1;
#X floatatom 240 244 5 0 0 1 Raw_input - -;
#X floatatom 324 314 5 0 0 0 Summed_Values - -;
#X obj 191 342 + 1;
#X text 60 441 See also resample \, sendmany-osc.pd and lop;
#X obj 8 278 ==;
#X obj -97 338 f;
#X floatatom -85 364 5 0 0 0 - - -;
#X obj 8 321 sel 0;
#X obj -97 389 outlet float;
#X obj 218 321 bng 15 250 50 0 empty empty empty 17 7 0 10 -262144
-1 -1;
#X obj 240 208 spigot;
#X obj 189 298 i;
#X floatatom 257 384 5 0 0 0 Num_Values - -;
#X obj 191 320 i;
#X obj 164 397 /;
#X floatatom 164 420 5 0 0 0 Averaged_Value - -;
#X obj -82 262 spigot;
#X text -151 23 Cleans data flow for OSC output.;
#X text -151 38 Unchanged values are not re-sent.;
#X text 147 23 (Tested only for ints and floats);
#X text -150 52 Too frequent values are sent less frequent and averaged.
;
#X text 11 118 Freq.Cont. [on/off];
#X obj 182 125 inlet;
#X text 221 124 Set frequency (ms);
#X text -150 67 Set frequency with \$1 creation argument or 3rd inlet.
;
#X obj 129 136 sel 1;
#X obj 182 367 i;
#X obj 218 298 +;
#X obj 205 268 i 0;
#X obj 182 169 i 16;
#X text 216 182 16.6666ms for 60FPS;
#X text 100 256 Todo: disable metro when flow goes slower ?;
#X connect 0 0 36 0;
#X connect 0 0 38 0;
#X connect 1 0 6 0;
#X connect 1 0 35 0;
#X connect 2 0 0 0;
#X connect 3 0 39 0;
#X connect 4 0 3 0;
#X connect 6 0 9 0;
#X connect 6 0 20 1;
#X connect 7 0 20 0;
#X connect 7 0 26 0;
#X connect 9 0 26 1;
#X connect 10 0 37 0;
#X connect 11 0 24 1;
#X connect 12 0 36 1;
#X connect 12 0 23 1;
#X connect 14 0 17 0;
#X connect 15 0 14 1;
#X connect 15 0 16 0;
#X connect 15 0 18 0;
#X connect 17 0 15 0;
#X connect 19 0 23 0;
#X connect 20 0 10 0;
#X connect 21 0 11 0;
#X connect 21 0 37 1;
#X connect 23 0 12 0;
#X connect 24 0 25 0;
#X connect 25 0 14 0;
#X connect 25 0 15 1;
#X connect 26 0 15 1;
#X connect 26 0 14 0;
#X connect 32 0 39 0;
#X connect 35 0 39 0;
#X connect 35 1 0 0;
#X connect 36 0 24 0;
#X connect 36 0 22 0;
#X connect 37 0 19 0;
#X connect 37 0 21 0;
#X connect 38 0 21 1;
#X connect 38 0 37 1;
#X connect 39 0 2 0;
#X connect 39 0 0 1;
