#N canvas 253 103 465 300 10;
#X obj 67 199 unpackOSC;
#X obj 67 219 spigot;
#X obj 137 204 tgl 15 0 empty empty empty 17 7 0 10 -262144 -1 -1 1
1;
#X obj 67 240 print;
#X text 156 202 Enable / Disable;
#X text 65 103 Simple utility for displaying incomming OSC data;
#X obj 67 179 udpreceive 12000 localhost;
#X msg 67 141 status;
#X connect 0 0 1 0;
#X connect 1 0 3 0;
#X connect 2 0 1 1;
#X connect 6 0 0 0;
#X connect 6 1 1 0;
#X connect 7 0 6 0;
