#N canvas 531 288 665 342 10;
#X obj 145 230 tabwrite~ array1;
#X obj 186 144 bng 15 250 50 0 empty empty empty 17 7 0 10 -262144
-1 -1;
#X obj 186 178 metro 100;
#N canvas 0 22 450 278 (subpatch) 0;
#X array array1 100 float 5;
#A 0 0 0 0 0 0 0 0 0 0 0 0 0 0 0 0 0 0 0 0 0 0 0 0 0 0 0 0 0 0 0 0
0 0 0 0 0 0 0 0 0 0 0 0 0 0 0 0 0 0 0 0 0 0 0 0 0 0 0 0 0 0 0 0 0 0
0 0 0 0 0 0 0 0 0 0 0 0 0 0 0 0 0 0 0 0 0 0 0 0 0 0 0 0 0 0 0 0 0 0
0;
#X coords 0 1 99 -1 200 140 1;
#X restore 372 121 graph;
#X obj 54 240 dac~ 1 2;
#X obj 68 164 tgl 15 0 empty empty empty 17 7 0 10 -262144 -1 -1 1
1;
#X obj 99 204 *~;
#X obj 53 189 *~;
#X obj -35 26 tgl 15 0 empty empty empty 17 7 0 10 -262144 -1 -1 1
1;
#X msg -35 61 \; pd dsp \$1;
#X obj 52 119 readsf~ 2;
#X msg 129 102 start, f 8;
#X obj 52 54 openpanel;
#X msg 52 81 open \$1;
#X obj 52 24 bng 15 250 50 0 empty empty empty 17 7 0 10 -262144 -1
-1;
#X text 73 23 <-- Open File...;
#X msg 129 80 stop;
#X text 125 46 Player Controls;
#X text -29 137 Audio output ON / OFF ----------->;
#X obj 145 178 *~ 3;
#X text 208 9 Reads file in loop and outputs it to a virtual mic. (soundflower
\, jack Audio \, etc.) Set Pd to output sound to the virtual Mic. To
get that sound in OF \, set your system mic to the virtual mic and
there's your sound!;
#X connect 1 0 2 0;
#X connect 2 0 0 0;
#X connect 5 0 7 1;
#X connect 5 0 6 1;
#X connect 6 0 4 1;
#X connect 7 0 4 0;
#X connect 8 0 9 0;
#X connect 10 0 7 0;
#X connect 10 0 19 0;
#X connect 10 1 6 0;
#X connect 10 1 19 0;
#X connect 10 2 11 0;
#X connect 11 0 10 0;
#X connect 12 0 13 0;
#X connect 13 0 10 0;
#X connect 14 0 12 0;
#X connect 16 0 10 0;
#X connect 19 0 0 0;
