#N canvas 36 23 578 670 10;
#X obj 36 609 dac~, f 7;
#X floatatom 35 377 10 0 0 0 - - -, f 10;
#X obj 35 405 sig~;
#X obj 35 436 osc~;
#X obj 36 571 *~;
#X obj 60 543 line~;
#X msg 60 487 0.1 100;
#X msg 79 512 0 100;
#X text 131 482 on;
#X text 128 511 off;
#X text 117 540 envelope;
#X text 117 553 generator;
#X text 44 462 amplitude controls:;
#X text 716 48 <-Click to start;
#X text 718 90 <-Click to stop;
#X obj 135 362 hsl 128 15 30 400 0 0 empty empty Manual_frequency_control
-2 -8 0 10 -262144 -1 -1 0 1;
#X msg 654 41 \; pd dsp 1 \;;
#X msg 654 81 \; pd dsp 0 \;;
#X text 33 24 Listen for re-connection..;
#X obj 35 83 oscparse;
#X obj 35 62 netreceive -u -b 12001;
#X obj 95 126 bng 15 250 50 0 empty empty empty 17 7 0 10 -262144 -1
-1;
#X msg 231 45 listen 0;
#X obj 35 174 bng 15 250 50 0 empty empty empty 17 7 0 10 -262144 -1
-1;
#X obj 35 104 list trim;
#X text 117 126 Unrecognized command received;
#X text 133 42 Disconnects -->;
#X msg 35 42 listen 12002;
#X obj 35 150 route chladniChange;
#X obj 35 125 route km;
#X obj 35 264 f 44.5;
#X obj 89 265 f 134.8;
#X obj 147 265 f 164;
#X text 193 266 Frequences Choisies;
#X text 110 377 Current Frequency;
#X obj 35 197 random 3;
#X obj 35 220 sel 0 1 2;
#X obj 35 293 pack f i;
#X msg 35 321 \$1 \$2, f 7;
#X msg 104 318 \$1 800;
#X text 154 318 800 ms transition;
#X obj 35 349 line;
#X obj 370 208 loadbang;
#X obj 370 233 i 800;
#X text 409 232 Default transition time;
#X obj 373 257 hsl 128 15 0 10000 0 0 empty empty empty -2 -8 0 10
-262144 -1 -1 0 1;
#X obj 370 279 nbx 5 14 -1e+37 1e+37 0 0 empty empty empty 0 -8 0 10
-262144 -1 -1 0 256;
#X text 429 278 Cur. Transition time;
#X obj 174 149 route freqChange;
#X obj 174 188 nbx 5 14 -1e+37 1e+37 0 0 empty empty empty 0 -8 0 10
-262144 -1 -1 0 256;
#X obj 188 170 bng 15 250 50 0 empty empty empty 17 7 0 10 -262144
-1 -1;
#X obj 314 150 route transitionTime;
#X obj 314 189 nbx 5 14 -1e+37 1e+37 0 0 empty empty empty 0 -8 0 10
-262144 -1 -1 0 256;
#X obj 328 171 bng 15 250 50 0 empty empty empty 17 7 0 10 -262144
-1 -1;
#X connect 1 0 2 0;
#X connect 2 0 3 0;
#X connect 3 0 4 0;
#X connect 4 0 0 0;
#X connect 5 0 4 1;
#X connect 6 0 5 0;
#X connect 7 0 5 0;
#X connect 15 0 1 0;
#X connect 19 0 24 0;
#X connect 20 0 19 0;
#X connect 22 0 20 0;
#X connect 23 0 35 0;
#X connect 24 0 29 0;
#X connect 27 0 20 0;
#X connect 28 0 23 0;
#X connect 29 0 28 0;
#X connect 29 0 48 0;
#X connect 29 0 51 0;
#X connect 29 1 21 0;
#X connect 30 0 37 0;
#X connect 31 0 37 0;
#X connect 32 0 37 0;
#X connect 35 0 36 0;
#X connect 36 0 30 0;
#X connect 36 1 31 0;
#X connect 36 2 32 0;
#X connect 37 0 38 0;
#X connect 38 0 41 0;
#X connect 41 0 1 0;
#X connect 42 0 43 0;
#X connect 43 0 45 0;
#X connect 45 0 46 0;
#X connect 46 0 37 1;
#X connect 48 0 49 0;
#X connect 48 0 50 0;
#X connect 51 0 53 0;
#X connect 51 0 52 0;
